<svg width="14" height="14" viewBox="0 0 14 14" fill="none" xmlns="http://www.w3.org/2000/svg">
<path d="M8.16667 5.83333H13.4167C13.7388 5.83333 14 6.0945 14 6.41667V7.58333C14 7.9055 13.7388 8.16667 13.4167 8.16667H8.16667V13.4167C8.16667 13.7388 7.9055 14 7.58333 14H6.41667C6.0945 14 5.83333 13.7388 5.83333 13.4167V8.16667H0.583333C0.261167 8.16667 0 7.9055 0 7.58333V6.41667C0 6.0945 0.261167 5.83333 0.583333 5.83333H5.83333V0.583333C5.83333 0.261167 6.0945 0 6.41667 0H7.58333C7.9055 0 8.16667 0.261167 8.16667 0.583333V5.83333Z" fill="#145774"/>
</svg>
