<svg width="24" height="24" viewBox="0 0 24 24" fill="none" xmlns="http://www.w3.org/2000/svg">
<path fill-rule="evenodd" clip-rule="evenodd" d="M16.7459 7.2605C16.3986 6.91317 15.8354 6.91317 15.4881 7.2605L12.0064 10.7422L8.52468 7.26051C8.17734 6.91317 7.61419 6.91317 7.26685 7.26051C6.91951 7.60785 6.91951 8.17099 7.26685 8.51833L10.7486 12L7.26691 15.4817C6.91957 15.829 6.91957 16.3922 7.26691 16.7395C7.61425 17.0868 8.1774 17.0868 8.52474 16.7395L12.0064 13.2579L15.488 16.7395C15.8354 17.0869 16.3985 17.0869 16.7459 16.7395C17.0932 16.3922 17.0932 15.829 16.7459 15.4817L13.2642 12L16.7459 8.51833C17.0933 8.17099 17.0933 7.60784 16.7459 7.2605Z" fill="#4B5258"/>
</svg>
