<svg width="79" height="80" viewBox="0 0 79 80" fill="none" xmlns="http://www.w3.org/2000/svg">
<path fill-rule="evenodd" clip-rule="evenodd" d="M12.894 31.2487L21.0943 30.2244C22.048 30.1054 22.7258 29.2199 22.6091 28.2476C22.4924 27.2746 21.6237 26.5831 20.6715 26.7022L14.6679 27.452C15.3457 22.4901 17.6083 17.8831 21.1476 14.3241C25.1409 10.3082 30.4296 7.97578 36.0374 7.75658C41.0478 7.56181 45.8473 9.02372 49.9171 11.9869C53.3985 14.5216 56.1235 18.0595 57.7156 22.075L55.1702 22.393C54.2165 22.512 53.5387 23.3975 53.6554 24.3698C53.7628 25.2695 54.5125 25.9287 55.3789 25.9287C55.4492 25.9287 55.5203 25.9247 55.593 25.9153L76.8055 23.2658C77.7592 23.1468 78.437 22.2613 78.3203 21.289C78.2036 20.316 77.3364 19.6237 76.3827 19.7435L62.0594 21.5325C61.1945 19.0411 59.9793 16.6978 58.4394 14.5543C56.7507 12.203 54.7142 10.1521 52.3864 8.45756C50.0338 6.74491 47.4447 5.4415 44.6911 4.58439C41.8431 3.69731 38.8761 3.30779 35.8751 3.42449C29.2046 3.6847 22.9143 6.45947 18.1636 11.2363C13.6853 15.7395 10.9254 21.6573 10.3266 27.9943L7.09245 28.3983C6.13875 28.5173 5.46096 29.4028 5.57766 30.3751C5.68508 31.2747 6.43475 31.9339 7.30112 31.9339C7.37145 31.9339 7.44333 31.93 7.5152 31.9205L12.3637 31.3149C12.3667 31.315 12.3696 31.315 12.3726 31.315C12.552 31.315 12.7267 31.292 12.894 31.2487ZM36.8767 57.8721C34.174 57.8721 31.51 57.4589 28.9418 56.6412C26.1417 55.7494 23.5179 54.3979 21.1414 52.6229C16.5938 49.2266 13.1818 44.3949 11.4717 38.954L1.95062 40.1432C1.87874 40.1518 1.80764 40.1566 1.73654 40.1566C0.870165 40.1566 0.120496 39.4974 0.0130696 38.5977C-0.103631 37.6255 0.574162 36.74 1.52786 36.6209L17.046 34.6827C17.9989 34.5629 18.8669 35.2552 18.9836 36.2282C19.1003 37.2004 18.4225 38.0859 17.4688 38.205L15.7825 38.4156C17.2908 42.6677 20.0468 46.4311 23.6524 49.1235C25.6502 50.6154 27.8559 51.7524 30.2085 52.5007C32.6422 53.2758 35.181 53.6172 37.7547 53.5171C43.463 53.294 48.8196 50.8921 52.8377 46.7532C56.4707 43.0108 58.7053 38.1717 59.2228 32.9886L47.0761 34.5061C47.0034 34.5148 46.9323 34.5195 46.862 34.5195C45.9956 34.5195 45.246 33.8603 45.1385 32.9606C45.0218 31.9884 45.6996 31.1029 46.6533 30.9838L66.8125 28.4653C67.7662 28.3454 68.6334 29.0377 68.7501 30.0108C68.8668 30.983 68.189 31.8685 67.2353 31.9876L63.5319 32.4502C63.1117 38.9865 60.4065 45.1196 55.8572 49.8056C51.0779 54.7283 44.7065 57.5858 37.917 57.8508C37.5699 57.865 37.2229 57.8721 36.8767 57.8721Z" fill="url(#paint0_linear)"/>
<path fill-rule="evenodd" clip-rule="evenodd" d="M25.9439 27.8313C26.0513 28.731 26.801 29.3902 27.6674 29.3902C27.7385 29.3902 27.8096 29.3862 27.8815 29.3768L48.7192 26.7739C49.6729 26.6548 50.3507 25.7693 50.234 24.7971C50.1173 23.8241 49.2493 23.1326 48.2964 23.2516L27.4587 25.8545C26.505 25.9736 25.8272 26.8591 25.9439 27.8313ZM22.4127 35.7992C22.5202 36.6989 23.2698 37.3581 24.1362 37.3581C24.2065 37.3581 24.2776 37.3541 24.3503 37.3447L39.8367 35.4104C40.7904 35.2914 41.4682 34.4059 41.3515 33.4336C41.2348 32.4606 40.3669 31.7683 39.414 31.8881L23.9275 33.8224C22.9738 33.9414 22.296 34.8269 22.4127 35.7992Z" fill="url(#paint1_linear)"/>
<mask id="mask0" mask-type="alpha" maskUnits="userSpaceOnUse" x="0" y="3" width="79" height="55">
<path fill-rule="evenodd" clip-rule="evenodd" d="M21.1476 14.3241C17.6083 17.8831 15.3457 22.4901 14.6679 27.452L20.6715 26.7022C21.6237 26.5831 22.4924 27.2746 22.6091 28.2476C22.7258 29.2199 22.048 30.1054 21.0943 30.2244L12.894 31.2487C12.7267 31.292 12.552 31.315 12.3726 31.315L12.3637 31.3149L7.5152 31.9205C7.44333 31.93 7.37145 31.9339 7.30112 31.9339C6.43475 31.9339 5.68508 31.2747 5.57766 30.3751C5.46096 29.4028 6.13875 28.5173 7.09245 28.3983L10.3266 27.9943C10.9254 21.6573 13.6853 15.7395 18.1636 11.2363C22.9143 6.45947 29.2046 3.6847 35.8751 3.42449C38.8761 3.30779 41.8431 3.69731 44.6911 4.58439C47.4447 5.4415 50.0338 6.74491 52.3864 8.45756C54.7142 10.1521 56.7507 12.203 58.4394 14.5543C59.9793 16.6978 61.1945 19.0411 62.0594 21.5325L76.3827 19.7435C77.3364 19.6237 78.2036 20.316 78.3203 21.289C78.437 22.2613 77.7592 23.1468 76.8055 23.2658L55.593 25.9153C55.5203 25.9247 55.4492 25.9287 55.3789 25.9287C54.5125 25.9287 53.7629 25.2695 53.6554 24.3698C53.5387 23.3975 54.2165 22.512 55.1702 22.393L57.7156 22.075C56.1235 18.0595 53.3985 14.5216 49.9171 11.9869C45.8473 9.02372 41.0478 7.56181 36.0374 7.75658C30.4296 7.97578 25.1409 10.3082 21.1476 14.3241ZM28.9409 56.6412C31.5091 57.4589 34.1731 57.8721 36.8758 57.8721C37.222 57.8721 37.569 57.865 37.916 57.8508C44.7056 57.5858 51.077 54.7283 55.8563 49.8056C60.4056 45.1196 63.1108 38.9866 63.5309 32.4504L67.2353 31.9876C68.189 31.8685 68.8668 30.983 68.7501 30.0108C68.6334 29.0377 67.7662 28.3454 66.8125 28.4653L46.6534 30.9838C45.6996 31.1029 45.0219 31.9884 45.1386 32.9606C45.246 33.8603 45.9957 34.5195 46.862 34.5195C46.9324 34.5195 47.0035 34.5148 47.0761 34.5061L59.2219 32.9887C58.7044 38.1717 56.4697 43.0108 52.8368 46.7532C48.8187 50.8921 43.462 53.294 37.7537 53.5171C35.1801 53.6172 32.6413 53.2758 30.2076 52.5007C27.855 51.7524 25.6493 50.6154 23.6515 49.1235C20.0459 46.4311 17.29 42.6678 15.7816 38.4157L17.4688 38.205C18.4225 38.0859 19.1003 37.2004 18.9836 36.2282C18.8669 35.2552 17.9989 34.5629 17.046 34.6827L1.52786 36.6209C0.574162 36.74 -0.103631 37.6255 0.0130696 38.5977C0.120496 39.4974 0.870165 40.1566 1.73654 40.1566C1.80764 40.1566 1.87874 40.1518 1.95062 40.1432L11.4708 38.9541C13.181 44.395 16.593 49.2266 21.1405 52.6229C23.517 54.3979 26.1408 55.7494 28.9409 56.6412ZM25.9439 27.8313C26.0514 28.731 26.801 29.3902 27.6674 29.3902C27.7385 29.3902 27.8096 29.3862 27.8815 29.3768L48.7192 26.7739C49.6729 26.6548 50.3507 25.7693 50.234 24.7971C50.1173 23.8241 49.2494 23.1326 48.2964 23.2516L27.4587 25.8545C26.505 25.9736 25.8272 26.8591 25.9439 27.8313ZM24.1362 37.3581C23.2699 37.3581 22.5202 36.6989 22.4128 35.7992C22.2961 34.827 22.9739 33.9415 23.9276 33.8224L39.414 31.8882C40.3669 31.7683 41.2348 32.4606 41.3515 33.4336C41.4682 34.4059 40.7905 35.2914 39.8368 35.4105L24.3503 37.3447C24.2777 37.3542 24.2066 37.3581 24.1362 37.3581Z" fill="#914A4A"/>
</mask>
<g mask="url(#mask0)">
<ellipse cx="47.2139" cy="32.1313" rx="27.194" ry="27.0252" fill="url(#paint2_radial)" fill-opacity="0.6"/>
</g>
<path fill-rule="evenodd" clip-rule="evenodd" d="M40.8818 65.2328C41.0435 65.2123 41.1318 65.3349 41.1318 65.4881V78.591C41.1318 78.7272 41.0318 78.8447 40.8818 78.8447H39.5318C39.3985 78.8447 39.2818 78.7272 39.2818 78.591V77.6872C38.7152 78.334 37.7318 79.0847 36.2152 79.0847C33.3485 79.0847 31.3485 76.9383 31.3485 73.8745C31.3485 70.8276 33.3485 68.6319 36.1168 68.6319C37.7318 68.6319 38.7318 69.4659 39.2335 70.0276V65.6651C39.2335 65.5119 39.3352 65.4217 39.4818 65.4081L40.8818 65.2328ZM58.633 68.6319C60.248 68.6319 61.2497 69.4659 61.7497 70.0276V69.1255C61.7497 68.9723 61.8647 68.8719 61.998 68.8719H63.3997C63.5497 68.8719 63.648 68.9723 63.648 69.1255V78.591C63.648 78.7272 63.5497 78.8447 63.3997 78.8447H62.048C61.9147 78.8447 61.7997 78.7272 61.7997 78.591V77.6872C61.2313 78.334 60.248 79.0847 58.7313 79.0847C55.8647 79.0847 53.8647 76.9383 53.8647 73.8745C53.8647 70.8276 55.8647 68.6319 58.633 68.6319ZM18.2833 65.2317C18.455 65.2113 18.5317 65.3526 18.5317 65.4888V74.6564C18.5317 76.8539 17.1983 79.0836 14.215 79.0836C12.2167 79.0836 10.0483 77.8564 10 75.1858C10 75.1177 10.0317 75.0496 10.0833 74.9985C10.115 74.9458 10.1817 74.9305 10.2483 74.9305H11.6983C11.8317 74.9305 11.95 75.0326 11.95 75.1687C11.9817 76.4113 12.8817 77.1943 14.265 77.1943C15.9833 77.1943 16.5817 75.8496 16.5817 74.6922L16.5883 65.7202C16.5883 65.5824 16.7033 65.4632 16.8367 65.4632L18.2833 65.2317ZM25.3153 68.6322C28.1487 68.6322 30.067 70.6748 30.067 73.7216V74.3684C30.067 74.5046 29.9487 74.6237 29.8153 74.6237H22.5153C22.682 76.2578 23.782 77.262 25.432 77.262C26.6487 77.262 27.6653 76.6493 28.032 75.7131C28.0653 75.611 28.1653 75.5429 28.267 75.5429H29.732C29.7987 75.5429 29.882 75.5769 29.9337 75.645C29.9653 75.7131 29.982 75.7982 29.9653 75.8663C29.3987 77.8237 27.5987 79.0833 25.417 79.0833C22.532 79.0833 20.5153 76.9216 20.5153 73.8578C20.5153 70.828 22.5487 68.6322 25.3153 68.6322ZM45.3322 64.6838C45.4905 64.66 45.5822 64.7859 45.5822 64.9374V69.8242C46.0988 69.1928 47.0155 68.6311 48.2988 68.6311C50.5155 68.6311 52.0488 70.2651 52.0488 72.6328V78.5902C52.0488 78.7264 51.9322 78.8438 51.8005 78.8438H50.3822C50.2488 78.8438 50.1338 78.7264 50.1338 78.5902V72.7179C50.1338 71.4413 49.1988 70.4881 47.9655 70.4881C46.6322 70.4881 45.5822 71.5093 45.5822 72.837V78.5902C45.5822 78.7264 45.4655 78.8438 45.3322 78.8438H43.9155C43.7822 78.8438 43.6655 78.7264 43.6655 78.5902V65.1366C43.6655 64.9817 43.7838 64.8949 43.9155 64.8796L45.3322 64.6838ZM36.2652 70.4532C34.5168 70.4532 33.2985 71.8506 33.2985 73.8745C33.2985 75.934 34.4652 77.2787 36.2985 77.2787C38.0668 77.2787 39.2818 75.8847 39.2818 73.8745C39.2818 71.8319 38.0668 70.4532 36.2652 70.4532ZM58.7813 70.4532C57.033 70.4532 55.8147 71.8506 55.8147 73.8745C55.8147 75.934 56.998 77.2787 58.8163 77.2787C60.583 77.2787 61.7997 75.8847 61.7997 73.8745C61.7997 71.8319 60.583 70.4532 58.7813 70.4532ZM25.3153 70.4535C23.932 70.4535 22.8153 71.4408 22.567 72.8365H28.032C27.832 71.3727 26.8003 70.4535 25.3153 70.4535Z" fill="#145774"/>
<defs>
<linearGradient id="paint0_linear" x1="16.8078" y1="53.6167" x2="48.4363" y2="6.94464" gradientUnits="userSpaceOnUse">
<stop stop-color="#174864"/>
<stop offset="0.965796" stop-color="#2E6686"/>
</linearGradient>
<linearGradient id="paint1_linear" x1="36.3233" y1="23.2383" x2="28.1262" y2="36.4495" gradientUnits="userSpaceOnUse">
<stop stop-color="#47E8E0"/>
<stop offset="1" stop-color="#27C4BC"/>
</linearGradient>
<radialGradient id="paint2_radial" cx="0" cy="0" r="1" gradientUnits="userSpaceOnUse" gradientTransform="translate(47.2139 32.1313) rotate(90) scale(27.0252 27.194)">
<stop stop-color="white" stop-opacity="0.7"/>
<stop offset="1" stop-color="white" stop-opacity="0"/>
</radialGradient>
</defs>
</svg>
