<svg width="153" height="59" viewBox="0 0 153 59" fill="none" xmlns="http://www.w3.org/2000/svg">
<g clip-path="url(#clip0)">
<g clip-path="url(#clip1)">
<path d="M42.809 50.5843C38.0088 49.3033 30.0299 51.2922 36.5138 69.4959C43.2111 65.1971 53.8464 55.3963 42.809 50.5843Z" fill="#DAE4FA"/>
<path d="M42.809 50.5842C40.3613 50.0269 36.1379 51.64 38.8256 62.5508C42.4714 59.7481 48.3725 53.4309 42.809 50.5842Z" fill="#FFCB56"/>
<path d="M61.3204 43.9228C57.6054 43.0017 55.6906 48.3707 55.1975 51.1703L62.2191 53.4483C63.4673 50.6569 65.0354 44.8439 61.3204 43.9228Z" fill="#DAE4FA"/>
<path d="M31.515 34.3808C27.8 33.4597 25.8852 38.8287 25.3921 41.6284L32.4136 43.9063C33.6621 41.115 35.2299 35.3019 31.515 34.3808Z" fill="#DAE4FA"/>
<path d="M50.7395 51.6181L35.8322 46.7819C35.8718 45.4203 35.9363 44.0997 36.0234 42.8188L52.9104 48.2974C52.1632 49.5135 51.4316 50.6276 50.7395 51.6181Z" fill="#C4C4C4"/>
<path fill-rule="evenodd" clip-rule="evenodd" d="M57.8298 4.78927C54.9879 5.14208 50.9462 6.95664 47.0977 11.1334C44.9228 13.4939 42.8096 16.6092 41.0099 20.6415C35.8174 22.3901 25.0983 26.8916 23.761 30.909L21.3781 38.0676L36.0235 42.8189L52.9104 48.2975L67.6123 53.0671C67.8499 52.4734 68.659 50.2103 69.9952 45.9085C71.3314 41.6066 65.085 31.7668 61.7949 27.3847C62.6604 23.5895 63.0521 19.7785 62.6989 16.1948C62.2794 11.9356 60.8078 7.99739 57.8298 4.78927Z" fill="#351FAE"/>
<path d="M47.0976 11.1333C50.9461 6.95655 54.9878 5.14199 57.8297 4.78919C60.8077 7.9973 62.2793 11.9355 62.6988 16.1947L47.0976 11.1333Z" fill="#040404" fill-opacity="0.15"/>
<path d="M23.761 30.9088C25.0983 26.8914 35.8174 22.3899 41.0099 20.6413C38.5423 26.1701 36.6641 33.4228 36.0235 42.8188L21.3781 38.0674L23.761 30.9088Z" fill="black" fill-opacity="0.26"/>
<path d="M69.9951 45.9084C71.3313 41.6066 65.0849 31.7668 61.7948 27.3846C60.0342 35.1043 56.3131 42.7579 52.9103 48.2974L67.6121 53.067C67.8497 52.4733 68.6588 50.2102 69.9951 45.9084Z" fill="black" fill-opacity="0.26"/>
<path d="M49.51 30.5022C52.851 31.5861 56.4511 29.7859 57.5511 26.4814C58.651 23.1769 56.8344 19.6194 53.4934 18.5355C50.1525 17.4517 46.5524 19.2518 45.4524 22.5563C44.3524 25.8608 46.1691 29.4183 49.51 30.5022Z" fill="#C4C4C4"/>
<path d="M50.4346 27.7243C52.2244 28.3049 54.1531 27.3406 54.7423 25.5703C55.3316 23.8 54.3584 21.8942 52.5686 21.3136C50.7788 20.7329 48.8502 21.6973 48.2609 23.4676C47.6716 25.2378 48.6448 27.1436 50.4346 27.7243Z" fill="#DAE4FA"/>
<path d="M61.6816 50.0352C61.4424 50.7538 62.0401 51.2264 62.3686 51.3728C62.6763 51.3798 63.3063 51.3505 63.3637 51.178C63.4355 50.9624 63.3605 50.5799 63.1547 50.712C62.9491 50.8444 62.1951 50.6795 62.1699 50.512C62.1448 50.3445 61.8013 49.6758 61.6816 50.0352Z" fill="#8A6564"/>
<path d="M57.2593 49.7151C56.9966 49.6298 56.5478 49.1393 56.3564 48.9046C57.2734 47.7289 57.6528 48.29 57.5451 48.6133C57.4374 48.9368 57.7533 48.9595 57.9359 49.0188C58.1184 49.078 58.5305 48.933 58.4468 49.1845C58.363 49.4362 57.5877 49.8216 57.2593 49.7151Z" fill="#8A6564"/>
<path fill-rule="evenodd" clip-rule="evenodd" d="M81.1119 13.216L78.8896 15.2178L81.8063 16.1641L83.7045 14.0571L81.1119 13.216ZM22.6974 15.7661L22.816 18.6457L24.6906 19.8458L25.1424 15.6122L22.6974 15.7661ZM8.99304 29.1165L8.76771 26.5573L12.5788 26.2548L12.6237 28.637L8.99304 29.1165ZM74.2706 21.6496C74.0709 22.7291 73.9882 25.0147 75.2561 25.5208C76.5239 26.0268 77.6568 26.3392 78.0647 26.432C79.0943 26.0952 81.4131 25.5057 82.4501 25.8422C82.765 26.6942 83.3094 28.6544 82.968 29.6801L84.4105 30.74C84.8386 29.8134 85.5138 27.6411 84.7898 26.3645C83.8847 24.7686 81.0774 24.213 80.3937 24.1096C79.8467 24.0268 77.5303 24.5617 76.4403 24.8395C76.4021 24.2352 76.3684 22.8984 76.5391 22.3855C76.7098 21.8727 75.0979 21.6812 74.2706 21.6496ZM41.0815 6.74763C40.7927 6.46453 40.594 4.6165 40.5308 3.72776C38.6246 3.70126 35.7897 5.38598 34.4987 6.38776C33.4659 7.18918 31.5163 10.3135 30.6706 11.7753C31.1311 11.83 32.5681 12.6672 33.2289 13.0788C34.1774 12.8183 35.4077 9.05034 35.9043 7.19893L41.0815 6.74763ZM78.6331 48.7237L78.5623 47.3185L77.6225 46.7257L77.4144 48.7891L78.6331 48.7237ZM70.0877 54.9788C70.2306 55.117 70.3331 56.015 70.3663 56.4467C71.305 56.4643 72.6966 55.6531 73.3296 55.1695C73.836 54.7828 74.7881 53.2702 75.2009 52.5624C74.9741 52.5348 74.2644 52.1246 73.9382 51.9231C73.4717 52.0474 72.8755 53.8743 72.6355 54.7721L70.0877 54.9788ZM6.70544 9.0109L6.33917 7.2347C7.59673 6.93238 10.4372 6.71741 11.7377 8.27582C13.3634 10.2238 10.9014 15.4627 10.327 15.7498C9.92966 15.2658 9.02674 14.2626 8.59465 14.1224C9.28574 13.0048 10.6386 10.571 10.5205 9.77507C9.46396 9.35345 7.22183 8.61019 6.70544 9.0109ZM68.3027 15.9807L67.8613 13.3515L72.613 14.5379L70.9295 16.3594L68.3027 15.9807ZM16.4751 36.7933L15.337 40.2123L17.1761 41.5192L19.3602 38.9131L16.4751 36.7933ZM74.3184 36.3327L76.092 37.0222L77.1004 34.4331L75.4151 33.9063L74.3184 36.3327ZM68.8309 37.0756L66.1618 37.1561L65.6151 35.6043L67.9234 34.6269L68.8309 37.0756Z" fill="#BEB1FF"/>
<path d="M86.1367 11.4158L88.3359 11.992L89.0075 10.5813L85.633 10.1022L86.1367 11.4158Z" fill="#FFCB56"/>
</g>
</g>
<path fill-rule="evenodd" clip-rule="evenodd" d="M152.275 27.0999C152.07 26.464 151.472 26.0121 150.789 25.9452L140.766 25.1084L136.855 16.0209C136.582 15.4017 135.967 15 135.284 15C134.601 15 133.987 15.4017 133.714 16.0209L129.803 25.1084L119.78 25.9452C119.097 25.9954 118.516 26.4472 118.294 27.0999C118.09 27.7359 118.277 28.4388 118.807 28.8739L126.405 35.3339L124.134 44.9402C123.981 45.5929 124.237 46.2791 124.8 46.6807C125.364 47.0824 126.098 47.0991 126.679 46.7644L135.284 41.66L143.908 46.7477C144.181 46.915 144.488 46.982 144.795 46.982C145.154 46.982 145.496 46.8816 145.803 46.664C146.366 46.2623 146.623 45.5929 146.469 44.9235L144.198 35.3172L151.796 28.8572C152.292 28.4388 152.497 27.7359 152.275 27.0999Z" fill="#6D53F9"/>
<path fill-rule="evenodd" clip-rule="evenodd" d="M134.085 28.2143C133.935 27.7601 133.497 27.4373 132.996 27.3895L125.645 26.7918L122.778 20.3007C122.577 19.8584 122.127 19.5715 121.626 19.5715C121.125 19.5715 120.674 19.8584 120.474 20.3007L117.606 26.7918L110.256 27.3895C109.755 27.4254 109.329 27.7481 109.166 28.2143C109.016 28.6686 109.154 29.1707 109.542 29.4815L115.114 34.0958L113.449 40.9574C113.336 41.4236 113.524 41.9137 113.937 42.2006C114.351 42.4875 114.889 42.4995 115.315 42.2604L121.626 38.6144L127.949 42.2484C128.15 42.368 128.375 42.4158 128.6 42.4158C128.863 42.4158 129.114 42.3441 129.339 42.1887C129.753 41.9018 129.94 41.4236 129.828 40.9454L128.162 34.0838L133.735 29.4695C134.098 29.1707 134.248 28.6686 134.085 28.2143Z" fill="#4B9AC7"/>
<path fill-rule="evenodd" clip-rule="evenodd" d="M120.437 28.7714C120.314 28.408 119.955 28.1498 119.545 28.1116L113.531 27.6334L111.185 22.4405C111.021 22.0867 110.652 21.8572 110.243 21.8572C109.833 21.8572 109.464 22.0867 109.3 22.4405L106.954 27.6334L100.94 28.1116C100.53 28.1403 100.182 28.3985 100.049 28.7714C99.9257 29.1348 100.038 29.5365 100.356 29.7851L104.915 33.4766L103.553 38.9659C103.46 39.3388 103.614 39.7309 103.952 39.9605C104.29 40.19 104.731 40.1995 105.079 40.0083L110.243 37.0915L115.417 39.9987C115.58 40.0943 115.765 40.1326 115.949 40.1326C116.164 40.1326 116.369 40.0752 116.554 39.9509C116.892 39.7214 117.046 39.3388 116.953 38.9563L115.591 33.467L120.15 29.7756C120.447 29.5365 120.57 29.1348 120.437 28.7714Z" fill="#4BE8E0"/>
<defs>
<clipPath id="clip0">
<rect width="93" height="59" fill="white"/>
</clipPath>
<clipPath id="clip1">
<rect width="96.5315" height="68.2411" fill="white" transform="matrix(0.951195 0.308591 -0.315836 0.948814 12.2437 -10)"/>
</clipPath>
</defs>
</svg>
