<svg width="147" height="56" viewBox="0 0 147 56" fill="none" xmlns="http://www.w3.org/2000/svg">
<g clip-path="url(#clip0)">
<path d="M46.9377 37.7444H40.0061V48.0851H46.9377V37.7444Z" fill="#2D2D2D"/>
<path fill-rule="evenodd" clip-rule="evenodd" d="M9.24384 47.677H8.43694V48.4932H9.24384V47.677ZM9.85318 47.677H26.9459V48.4932H9.85318V47.677ZM25.1677 57.3826H20.5138H0V55.9681C0 55.6869 0.032811 54.6582 0.0948885 54.2815C0.905555 49.3615 5.1633 45.7839 10.0945 45.7839H40.0062V47.27H34.2551C33.5786 47.27 33.0301 47.8248 33.0301 48.5092H53.9139C53.9139 47.8248 53.3655 47.27 52.6889 47.27H46.9378V45.7839H76.8495C81.7807 45.7839 86.0384 49.3615 86.8491 54.2815C86.9112 54.6582 86.944 55.6869 86.944 55.9681V57.3826H25.1677Z" fill="#E8F4FF"/>
<path fill-rule="evenodd" clip-rule="evenodd" d="M12.3919 11.2842C12.5368 11.2842 12.6543 11.1803 12.6543 11.052C12.6543 10.9238 12.5368 10.8198 12.3919 10.8198C12.2469 10.8198 12.1294 10.9238 12.1294 11.052C12.1294 11.1803 12.2469 11.2842 12.3919 11.2842ZM6.61183 15.1088H10.2555V39.3896H6.61183C6.35929 39.3896 6.15454 39.1825 6.15454 38.9271V15.5714C6.15454 15.3159 6.35929 15.1088 6.61183 15.1088ZM80.3323 39.3896H24.6679V15.1088H80.3323C80.5849 15.1088 80.7896 15.3159 80.7896 15.5714V38.9271C80.7896 39.1825 80.5849 39.3896 80.3323 39.3896ZM8.43701 47.677H9.2439V48.4932H8.43701V47.677ZM26.9459 47.677H9.85324V48.4932H26.9459V47.677Z" fill="#1A7297"/>
<path d="M27.788 34.3049H7.55273V34.7691H27.788V34.3049Z" fill="#464C4C"/>
<path d="M27.788 33.198H7.55273V33.6622H27.788V33.198Z" fill="#464C4C"/>
<path fill-rule="evenodd" clip-rule="evenodd" d="M49.2661 40.5463C49.2661 40.4824 49.3173 40.4307 49.3804 40.4307H72.8044C72.8676 40.4307 72.9188 40.4824 72.9188 40.5463C72.9188 40.6102 72.8676 40.6619 72.8044 40.6619H49.3804C49.3173 40.6619 49.2661 40.6102 49.2661 40.5463Z" fill="#464C4C"/>
<path fill-rule="evenodd" clip-rule="evenodd" d="M6.61182 14.0682C5.79247 14.0682 5.12562 14.7427 5.12562 15.5715V38.9272C5.12562 39.756 5.79247 40.4305 6.61182 40.4305H38.0655C38.1286 40.4305 38.1798 40.4822 38.1798 40.5461C38.1798 40.61 38.1286 40.6618 38.0655 40.6618H6.61182C5.66614 40.6618 4.89697 39.8838 4.89697 38.9272V15.5715C4.89697 14.6149 5.66614 13.8369 6.61182 13.8369H33.0054C33.0685 13.8369 33.1197 13.8887 33.1197 13.9526C33.1197 14.0164 33.0685 14.0682 33.0054 14.0682H6.61182ZM44.3454 13.8369C44.2821 13.8369 44.231 13.8887 44.231 13.9526C44.231 14.0164 44.2821 14.0682 44.3454 14.0682H80.3324C81.1517 14.0682 81.8186 14.7427 81.8186 15.5715V19.6889C81.8186 19.7527 81.8697 19.8045 81.9329 19.8045C81.996 19.8045 82.0472 19.7527 82.0472 19.6889V15.5715C82.0472 14.6149 81.2781 13.8369 80.3324 13.8369H44.3454ZM82.0471 30.2981C82.0471 30.2342 81.9959 30.1825 81.9328 30.1825C81.8697 30.1825 81.8185 30.2342 81.8185 30.2981V38.9271C81.8185 39.756 81.1517 40.4304 80.3323 40.4304H78.9779C78.9148 40.4304 78.8635 40.4822 78.8635 40.546C78.8635 40.61 78.9148 40.6616 78.9779 40.6616H80.3323C81.2779 40.6616 82.0471 39.8838 82.0471 38.9271V30.2981ZM33.0301 48.5093H53.914C53.914 47.8249 53.3656 47.2701 52.6889 47.2701H34.2552C33.5786 47.2701 33.0301 47.8249 33.0301 48.5093Z" fill="#464C4C"/>
<path fill-rule="evenodd" clip-rule="evenodd" d="M73.673 24.5861C73.5434 24.6866 73.4728 24.8174 73.4728 24.9531V28.4775C73.4728 28.6132 73.5434 28.744 73.673 28.8445C73.8027 28.9451 73.9868 29.0106 74.1949 29.0106H84.6889C84.897 29.0106 85.0811 28.9451 85.2109 28.8445C85.3405 28.7439 85.4111 28.6132 85.4111 28.4775V24.9531C85.4111 24.8174 85.3405 24.6866 85.2109 24.5861C85.0811 24.4855 84.897 24.42 84.6889 24.42H74.1949C73.9868 24.42 73.8027 24.4855 73.673 24.5861ZM73.5338 24.4026C73.7069 24.2684 73.9409 24.1887 74.1949 24.1887H84.6889C84.9428 24.1887 85.1769 24.2684 85.35 24.4026C85.5231 24.5368 85.6397 24.7304 85.6397 24.9531V28.4775C85.6397 28.7001 85.5231 28.8937 85.35 29.028C85.1769 29.1622 84.9428 29.2418 84.6889 29.2418H74.1949C73.9409 29.2418 73.7069 29.1622 73.5338 29.028C73.3607 28.8937 73.2441 28.7001 73.2441 28.4775V24.9531C73.2441 24.7305 73.3607 24.5368 73.5338 24.4026Z" fill="#464C4C"/>
<path d="M52.5026 33.3113H47.8486V33.7754H52.5026V33.3113Z" fill="#464C4C"/>
<path d="M52.5026 34.4185H47.8486V34.8826H52.5026V34.4185Z" fill="#464C4C"/>
<path fill-rule="evenodd" clip-rule="evenodd" d="M10.7129 9.46826H24.2107C24.4633 9.46826 24.668 9.67525 24.668 9.93081V15.1087V39.3895V47.6769H10.2556V39.3895V15.1087V9.93081C10.2556 9.67525 10.4604 9.46826 10.7129 9.46826ZM10.2556 48.4931V54.4023C10.2556 54.6577 10.4604 54.8648 10.7129 54.8648H24.2107C24.4633 54.8648 24.668 54.6577 24.668 54.4023V48.4931H10.2556ZM12.392 11.2841C12.5368 11.2841 12.6543 11.1802 12.6543 11.0519C12.6543 10.9237 12.5368 10.8197 12.392 10.8197C12.247 10.8197 12.1295 10.9237 12.1295 11.0519C12.1295 11.1802 12.247 11.2841 12.392 11.2841Z" fill="#145774"/>
<path d="M50.1839 25.4412H45.53V25.9053H50.1839V25.4412Z" fill="#E4E5E6"/>
<path d="M50.1839 26.5483H45.53V27.0125H50.1839V26.5483Z" fill="#E4E5E6"/>
<path d="M50.1839 22.6025H45.53V23.0667H50.1839V22.6025Z" fill="#E4E5E6"/>
<path d="M50.1839 23.7097H45.53V24.1739H50.1839V23.7097Z" fill="#E4E5E6"/>
<path d="M50.1839 19.7646H45.53V20.2288H50.1839V19.7646Z" fill="#E4E5E6"/>
<path d="M50.1839 20.8716H45.53V21.3358H50.1839V20.8716Z" fill="#E4E5E6"/>
<path d="M50.1839 16.926H45.53V17.3902H50.1839V16.926Z" fill="#E4E5E6"/>
<path d="M50.1839 18.0332H45.53V18.4974H50.1839V18.0332Z" fill="#E4E5E6"/>
<path fill-rule="evenodd" clip-rule="evenodd" d="M13.6858 13.2681H21.2374C21.49 13.2681 21.6947 13.4752 21.6947 13.7306V15.0199C21.6947 15.2753 21.49 15.4824 21.2374 15.4824H13.6858C13.4333 15.4824 13.2285 15.2753 13.2285 15.0199V13.7306C13.2285 13.4752 13.4333 13.2681 13.6858 13.2681ZM21.3506 19.2807H14.9889V20.097H21.3506V19.2807ZM13.5726 19.2807H14.3795V20.097H13.5726V19.2807ZM21.3506 21.3618H14.9889V22.178H21.3506V21.3618ZM13.5726 21.3618H14.3795V22.178H13.5726V21.3618ZM21.3506 23.4428H14.9889V24.259H21.3506V23.4428ZM13.5726 23.4428H14.3795V24.259H13.5726V23.4428ZM21.3506 25.5238H14.9889V26.3401H21.3506V25.5238ZM13.5726 25.5238H14.3795V26.3401H13.5726V25.5238ZM21.3506 27.6048H14.9889V28.4211H21.3506V27.6048ZM13.5726 27.6048H14.3795V28.4211H13.5726V27.6048ZM21.3506 31.7665H14.9889V32.5826H21.3506V31.7665ZM13.5726 31.7665H14.3795V32.5826H13.5726V31.7665ZM21.3506 33.8475H14.9889V34.6636H21.3506V33.8475ZM13.5726 33.8475H14.3795V34.6636H13.5726V33.8475ZM21.3506 35.9285H14.9889V36.7446H21.3506V35.9285ZM13.5726 35.9285H14.3795V36.7446H13.5726V35.9285Z" fill="white"/>
<path fill-rule="evenodd" clip-rule="evenodd" d="M34.8384 19.5484H42.3317C42.5844 19.5484 42.789 19.3413 42.789 19.0858V9.26187C42.789 9.00642 42.5844 8.79932 42.3317 8.79932H34.8384C34.5859 8.79932 34.3811 9.00642 34.3811 9.26187V19.0858C34.3811 19.3413 34.5859 19.5484 34.8384 19.5484ZM42.851 30.5254H29.6871C29.4337 30.5254 29.2282 30.3176 29.2282 30.0612V27.2054C29.2282 26.9491 29.4337 26.7413 29.6871 26.7413H42.851C43.1044 26.7413 43.3099 26.9491 43.3099 27.2054V30.0612C43.3099 30.3176 43.1044 30.5254 42.851 30.5254ZM29.5091 32.0623H43.0097C43.17 32.0623 43.3001 32.1939 43.3001 32.3563V35.4947C43.3001 35.6569 43.17 35.7885 43.0097 35.7885H29.5091C29.3486 35.7885 29.2185 35.6569 29.2185 35.4947V32.3563C29.2185 32.1939 29.3486 32.0623 29.5091 32.0623Z" fill="#F1F2F2"/>
<path d="M53.7808 13.4905C53.9258 13.4905 54.0433 13.3716 54.0433 13.225C54.0433 13.0783 53.9258 12.9595 53.7808 12.9595C53.6358 12.9595 53.5183 13.0783 53.5183 13.225C53.5183 13.3716 53.6358 13.4905 53.7808 13.4905Z" fill="#FFC905"/>
<path d="M55.9407 13.4905C56.0857 13.4905 56.2032 13.3716 56.2032 13.225C56.2032 13.0783 56.0857 12.9595 55.9407 12.9595C55.7957 12.9595 55.6782 13.0783 55.6782 13.225C55.6782 13.3716 55.7957 13.4905 55.9407 13.4905Z" fill="#FFC905"/>
<path fill-rule="evenodd" clip-rule="evenodd" d="M6.53176 6.9286H33.5399C33.7926 6.9286 33.9972 6.72149 33.9972 6.46605V5.46255C33.9972 5.20711 33.7926 5 33.5399 5H6.53176C6.27922 5 6.07446 5.20711 6.07446 5.46255V6.46605C6.07446 6.72149 6.27922 6.9286 6.53176 6.9286ZM70.9092 25.6868H52.9623C52.7083 25.6868 52.5024 25.4786 52.5024 25.2217V12.6961C52.5024 12.4392 52.7083 12.2309 52.9623 12.2309H70.9092C71.1632 12.2309 71.369 12.4392 71.369 12.6961V25.2217C71.369 25.4786 71.1632 25.6868 70.9092 25.6868ZM53.7808 13.4906C53.9257 13.4906 54.0432 13.3717 54.0432 13.2251C54.0432 13.0784 53.9257 12.9595 53.7808 12.9595C53.6358 12.9595 53.5183 13.0784 53.5183 13.2251C53.5183 13.3717 53.6358 13.4906 53.7808 13.4906ZM55.1231 13.2251C55.1231 13.3717 55.0057 13.4906 54.8608 13.4906C54.7158 13.4906 54.5983 13.3717 54.5983 13.2251C54.5983 13.0784 54.7158 12.9595 54.8608 12.9595C55.0057 12.9595 55.1231 13.0784 55.1231 13.2251ZM55.9407 13.4906C56.0856 13.4906 56.2032 13.3717 56.2032 13.2251C56.2032 13.0784 56.0856 12.9595 55.9407 12.9595C55.7957 12.9595 55.6782 13.0784 55.6782 13.2251C55.6782 13.3717 55.7957 13.4906 55.9407 13.4906ZM71.0209 32.0912H64.6537C64.4614 32.0912 64.3055 31.9334 64.3055 31.7389V28.6016C64.3055 28.4071 64.4614 28.2495 64.6537 28.2495H71.0209C71.2132 28.2495 71.3692 28.4071 71.3692 28.6016V31.7389C71.3692 31.9334 71.2132 32.0912 71.0209 32.0912ZM61.4823 32.0625H48.3C48.0506 32.0625 47.8484 31.8579 47.8484 31.6057V28.7351C47.8484 28.4828 48.0506 28.2784 48.3 28.2784H61.4823C61.7317 28.2784 61.9338 28.4828 61.9338 28.7351V31.6057C61.9338 31.8579 61.7317 32.0625 61.4823 32.0625ZM42.851 25.2046H29.6871C29.4337 25.2046 29.2282 24.9968 29.2282 24.7404V21.8847C29.2282 21.6283 29.4337 21.4205 29.6871 21.4205H42.851C43.1045 21.4205 43.3099 21.6283 43.3099 21.8847V24.7404C43.3099 24.9968 43.1045 25.2046 42.851 25.2046ZM10.2555 18.2798H8.76723V25.2045H10.2555V18.2798ZM24.6679 25.2045H28.118V18.2798H24.6679V25.2045ZM82.8298 21.5605H73.3584V22.0247H82.8298V21.5605ZM85.5254 22.6676H76.0538V23.1318H85.5254V22.6676ZM73.6759 30.1701H78.3917V30.6871H73.6759V30.1701ZM73.6759 31.7316H78.3917V32.2487H73.6759V31.7316ZM78.3917 33.2932H73.6759V33.8102H78.3917V33.2932ZM73.6759 34.8543H78.3917V35.3713H73.6759V34.8543ZM78.3917 36.4159H73.6759V36.9328H78.3917V36.4159ZM73.6759 37.977H78.3917V38.4939H73.6759V37.977ZM78.3917 39.5385H73.6759V40.0554H78.3917V39.5385ZM73.6759 41.0997H78.3917V41.6166H73.6759V41.0997ZM78.3917 42.6612H73.6759V43.1781H78.3917V42.6612ZM62.6203 33.4165C62.3293 33.4165 62.0933 33.6552 62.0933 33.9497V37.4741C62.0933 37.7685 62.3293 38.0072 62.6203 38.0072H70.6676C70.9586 38.0072 71.1947 37.7685 71.1947 37.4741V33.9497C71.1947 33.6552 70.9586 33.4165 70.6676 33.4165H62.6203ZM61.8647 33.9497C61.8647 33.5275 62.203 33.1852 62.6203 33.1852H70.6676C71.085 33.1852 71.4234 33.5275 71.4234 33.9497V37.4741C71.4234 37.8963 71.085 38.2384 70.6676 38.2384H62.6203C62.203 38.2384 61.8647 37.8963 61.8647 37.4741V33.9497ZM6.21165 43.0182C6.21165 42.3792 6.72382 41.8612 7.35557 41.8612H28.0273C28.659 41.8612 29.1712 42.3792 29.1712 43.0182V49.8121C29.1712 50.4511 28.659 50.9692 28.0273 50.9692H7.35557C6.72382 50.9692 6.21165 50.4511 6.21165 49.8121V43.0182ZM7.35557 41.7456C6.6606 41.7456 6.09733 42.3153 6.09733 43.0182V49.8121C6.09733 50.5151 6.6606 51.0848 7.35557 51.0848H28.0273C28.7221 51.0848 29.2855 50.5151 29.2855 49.8121V43.0182C29.2855 42.3153 28.7221 41.7456 28.0273 41.7456H7.35557ZM16.4458 43.0705H8.89425C8.64171 43.0705 8.43695 43.2776 8.43695 43.533V43.8643C8.43695 44.1198 8.64171 44.3269 8.89425 44.3269H16.4458C16.6984 44.3269 16.903 44.1198 16.903 43.8643V43.533C16.903 43.2776 16.6984 43.0705 16.4458 43.0705ZM26.9459 45.5941H9.85319V46.4103H26.9459V45.5941ZM8.43695 45.5941H9.24385V46.4103H8.43695V45.5941ZM7.55255 16.7083H10.2555V17.1724H7.55255V16.7083ZM29.3326 17.1724H24.6679V16.7083H29.3326V17.1724ZM34.3811 8.33047C34.1918 8.33047 34.0382 8.48577 34.0382 8.67738V19.6704C34.0382 19.8621 34.1918 20.0174 34.3811 20.0174H42.789C42.9785 20.0174 43.132 19.8621 43.132 19.6704V8.67738C43.132 8.48577 42.9785 8.33047 42.789 8.33047H34.3811ZM33.8095 8.67738C33.8095 8.35799 34.0655 8.0992 34.3811 8.0992H42.789C43.1048 8.0992 43.3607 8.35799 43.3607 8.67738V19.6704C43.3607 19.9898 43.1048 20.2486 42.789 20.2486H34.3811C34.0655 20.2486 33.8095 19.9898 33.8095 19.6704V8.67738ZM38.5851 11.7648C38.4409 11.7648 38.2998 11.7791 38.1632 11.8064C38.1012 11.8188 38.061 11.8796 38.0732 11.9423C38.0854 12.005 38.1456 12.0457 38.2075 12.0333C38.3296 12.0089 38.4558 11.9961 38.5851 11.9961C38.7144 11.9961 38.8408 12.0089 38.9627 12.0333C39.0247 12.0457 39.0849 12.005 39.0971 11.9423C39.1093 11.8796 39.0691 11.8188 39.0071 11.8064C38.8706 11.7791 38.7294 11.7648 38.5851 11.7648ZM39.7869 12.1333C39.7344 12.0978 39.6634 12.112 39.6283 12.1651C39.5932 12.2182 39.6072 12.29 39.6597 12.3255C39.8707 12.4683 40.0524 12.6522 40.1936 12.8655C40.2288 12.9186 40.2998 12.9328 40.3522 12.8973C40.4047 12.8617 40.4188 12.7899 40.3836 12.7368C40.2257 12.4984 40.0228 12.293 39.7869 12.1333ZM37.5106 12.3255C37.5631 12.29 37.5772 12.2182 37.5419 12.1651C37.5068 12.112 37.4358 12.0978 37.3834 12.1333C37.1475 12.293 36.9446 12.4984 36.7867 12.7368C36.7516 12.7899 36.7657 12.8617 36.8182 12.8973C36.8705 12.9328 36.9416 12.9186 36.9767 12.8655C37.1179 12.6522 37.2996 12.4683 37.5106 12.3255ZM40.7067 13.5256C40.6945 13.4629 40.6344 13.4222 40.5724 13.4346C40.5105 13.447 40.4702 13.5079 40.4824 13.5705C40.5066 13.694 40.5193 13.8216 40.5193 13.9524C40.5193 14.0832 40.5066 14.211 40.4824 14.3344C40.4702 14.397 40.5105 14.4579 40.5724 14.4702C40.6344 14.4826 40.6945 14.4419 40.7067 14.3792C40.7338 14.2412 40.7479 14.0983 40.7479 13.9524C40.7479 13.8065 40.7338 13.6638 40.7067 13.5256ZM36.6878 13.5705C36.7001 13.5079 36.6598 13.447 36.5979 13.4346C36.5359 13.4222 36.4758 13.4629 36.4635 13.5256C36.4366 13.6638 36.4224 13.8065 36.4224 13.9524C36.4224 14.0983 36.4366 14.2412 36.4635 14.3792C36.4758 14.4419 36.5359 14.4826 36.5979 14.4702C36.6598 14.4579 36.7001 14.397 36.6878 14.3344C36.6637 14.211 36.651 14.0832 36.651 13.9524C36.651 13.8216 36.6637 13.694 36.6878 13.5705ZM36.9767 15.0394C36.9416 14.9863 36.8705 14.9721 36.8182 15.0076C36.7657 15.0431 36.7516 15.1149 36.7867 15.168C36.9446 15.4065 37.1475 15.6118 37.3834 15.7715C37.4358 15.8071 37.5068 15.7929 37.5419 15.7398C37.5772 15.6867 37.5631 15.6149 37.5106 15.5793C37.2996 15.4365 37.1179 15.2528 36.9767 15.0394ZM40.3836 15.168C40.4188 15.1149 40.4047 15.0431 40.3522 15.0076C40.2998 14.9721 40.2288 14.9863 40.1936 15.0394C40.0524 15.2528 39.8707 15.4365 39.6597 15.5793C39.6072 15.6149 39.5932 15.6867 39.6283 15.7398C39.6634 15.7929 39.7344 15.8071 39.7869 15.7715C40.0228 15.6118 40.2257 15.4065 40.3836 15.168ZM38.2075 15.8715C38.1456 15.8592 38.0854 15.9 38.0732 15.9625C38.061 16.0252 38.1012 16.086 38.1632 16.0984C38.2998 16.1258 38.4409 16.14 38.5851 16.14C38.7294 16.14 38.8706 16.1258 39.0071 16.0984C39.0691 16.086 39.1093 16.0252 39.0971 15.9625C39.0849 15.9 39.0247 15.8592 38.9627 15.8715C38.8408 15.896 38.7144 15.9088 38.5851 15.9088C38.4558 15.9088 38.3296 15.896 38.2075 15.8715Z" fill="#CBE9FF"/>
<path d="M13.4717 11.2842C13.6167 11.2842 13.7342 11.1803 13.7342 11.052C13.7342 10.9238 13.6167 10.8198 13.4717 10.8198C13.3268 10.8198 13.2092 10.9238 13.2092 11.052C13.2092 11.1803 13.3268 11.2842 13.4717 11.2842Z" fill="#464C4C"/>
<path d="M14.5518 11.2842C14.6968 11.2842 14.8143 11.1803 14.8143 11.052C14.8143 10.9238 14.6968 10.8198 14.5518 10.8198C14.4068 10.8198 14.2893 10.9238 14.2893 11.052C14.2893 11.1803 14.4068 11.2842 14.5518 11.2842Z" fill="#464C4C"/>
</g>
<path fill-rule="evenodd" clip-rule="evenodd" d="M137.168 23.0999C136.963 22.464 136.365 22.0121 135.682 21.9452L125.659 21.1084L121.748 12.0209C121.475 11.4017 120.861 11 120.178 11C119.495 11 118.88 11.4017 118.607 12.0209L114.696 21.1084L104.673 21.9452C103.99 21.9954 103.41 22.4472 103.188 23.0999C102.983 23.7359 103.17 24.4388 103.7 24.8739L111.298 31.3339L109.027 40.9402C108.874 41.5929 109.13 42.2791 109.693 42.6807C110.257 43.0824 110.991 43.0991 111.572 42.7644L120.178 37.66L128.801 42.7477C129.074 42.915 129.381 42.982 129.689 42.982C130.047 42.982 130.389 42.8816 130.696 42.664C131.26 42.2623 131.516 41.5929 131.362 40.9235L129.091 31.3172L136.689 24.8572C137.185 24.4388 137.39 23.7359 137.168 23.0999Z" fill="#4B9AC7"/>
<path fill-rule="evenodd" clip-rule="evenodd" d="M118.978 24.2143C118.828 23.7601 118.39 23.4373 117.889 23.3895L110.538 22.7918L107.671 16.3007C107.47 15.8584 107.02 15.5715 106.519 15.5715C106.018 15.5715 105.567 15.8584 105.367 16.3007L102.499 22.7918L95.1489 23.3895C94.648 23.4254 94.2223 23.7481 94.0595 24.2143C93.9092 24.6686 94.047 25.1707 94.4351 25.4815L100.007 30.0957L98.342 36.9574C98.2293 37.4236 98.4171 37.9137 98.8304 38.2006C99.2436 38.4875 99.782 38.4995 100.208 38.2604L106.519 34.6144L112.842 38.2484C113.043 38.368 113.268 38.4158 113.494 38.4158C113.757 38.4158 114.007 38.3441 114.232 38.1887C114.646 37.9018 114.833 37.4236 114.721 36.9454L113.055 30.0838L118.628 25.4695C118.991 25.1707 119.141 24.6686 118.978 24.2143Z" fill="#4BE8E0"/>
<defs>
<clipPath id="clip0">
<rect width="87" height="56" fill="white"/>
</clipPath>
</defs>
</svg>
