<svg width="155" height="60" viewBox="0 0 155 60" fill="none" xmlns="http://www.w3.org/2000/svg">
<g clip-path="url(#clip0)">
<g style="mix-blend-mode:multiply">
<path d="M92.269 19.5662H33.394V22.9587H92.269V19.5662Z" fill="#F5F8FF"/>
</g>
<g style="mix-blend-mode:multiply">
<path d="M92.2691 26.0251H61.8987V29.4176H92.2691V26.0251Z" fill="#F5F8FF"/>
</g>
<g style="mix-blend-mode:multiply">
<path d="M92.269 32.4844H57.2139V35.8769H92.269V32.4844Z" fill="#F5F8FF"/>
</g>
<g style="mix-blend-mode:multiply">
<path d="M34.4256 39.2922H4.05518V42.6847H34.4256V39.2922Z" fill="#F5F8FF"/>
</g>
<g style="mix-blend-mode:multiply">
<path d="M34.4256 44.7292H4.05518V48.1217H34.4256V44.7292Z" fill="#F5F8FF"/>
</g>
<g style="mix-blend-mode:multiply">
<path d="M34.4256 50.166H4.05518V53.5585H34.4256V50.166Z" fill="#F5F8FF"/>
</g>
<path d="M9.59357 56.3701H4.73779V61.2084H9.59357V56.3701Z" fill="#F5F8FF"/>
<path d="M17.5274 56.3701H12.6716V61.2084H17.5274V56.3701Z" fill="#F5F8FF"/>
<path d="M25.4605 56.3701H20.6047V61.2084H25.4605V56.3701Z" fill="#F5F8FF"/>
<path d="M33.3941 56.3701H28.5383V61.2084H33.3941V56.3701Z" fill="#F5F8FF"/>
<path d="M8.99983 25.7372C8.61985 26.7837 10.6058 33.2862 11.9937 35.0479C12.4576 34.6709 15.9108 34.0223 16.3893 32.8793C16.9873 31.4504 15.7831 24.8115 15.6153 23.9795C15.4476 23.1476 13.7704 27.1034 13.7704 27.1034C13.7704 27.1034 13.3724 22.2467 12.9771 21.3748C12.7959 20.9751 9.78581 23.5729 8.99983 25.7372Z" fill="#FDD25D"/>
<path fill-rule="evenodd" clip-rule="evenodd" d="M9.32921 24.0813C9.39123 24.0698 9.45086 24.1106 9.46239 24.1724C9.64696 25.1616 9.91259 26.2229 10.2449 27.4151C10.2617 27.4756 10.2261 27.5384 10.1654 27.5552C10.1046 27.572 10.0416 27.5365 10.0247 27.476C9.69167 26.281 9.42409 25.2125 9.23778 24.214C9.22625 24.1522 9.26719 24.0928 9.32921 24.0813Z" fill="#E4C453"/>
<path fill-rule="evenodd" clip-rule="evenodd" d="M10.2286 22.8464C10.2907 22.8356 10.3499 22.877 10.3608 22.9389C10.4828 23.6335 11.0771 26.1268 11.2346 26.7466C11.2501 26.8075 11.2131 26.8694 11.152 26.8848C11.0908 26.9003 11.0287 26.8634 11.0132 26.8025C10.8558 26.1835 10.2595 23.6823 10.1358 22.9782C10.1249 22.9163 10.1664 22.8573 10.2286 22.8464Z" fill="#E4C453"/>
<path fill-rule="evenodd" clip-rule="evenodd" d="M11.4622 21.5064C11.5248 21.4991 11.5816 21.5437 11.589 21.6061C11.6884 22.4462 12.1527 24.9511 12.4374 26.2083C12.4512 26.2696 12.4126 26.3306 12.3511 26.3444C12.2895 26.3582 12.2284 26.3197 12.2145 26.2584C11.929 24.9976 11.4628 22.484 11.3621 21.6328C11.3547 21.5703 11.3995 21.5138 11.4622 21.5064Z" fill="#E4C453"/>
<path d="M77.7164 30.2078C78.516 30.9848 79.5716 37.6998 79.0925 39.888C78.5103 39.75 75.1183 40.6653 74.1879 39.8441C73.0249 38.8175 71.4046 33.7303 71.2104 32.9805C70.9976 32.1587 74.0198 33.5083 74.0198 33.5083C74.0198 33.5083 72.2544 28.964 72.2291 28.0075C72.2174 27.5691 76.0627 28.6008 77.7164 30.2078Z" fill="#FDD25D"/>
<path fill-rule="evenodd" clip-rule="evenodd" d="M76.6957 28.8605C76.7565 28.8439 76.8194 28.8796 76.836 28.9403C77.1049 29.9199 77.3311 30.9978 77.5539 32.218C77.5652 32.2798 77.524 32.3391 77.462 32.3503C77.3999 32.3616 77.3404 32.3206 77.3291 32.2587C77.1069 31.0414 76.882 29.9708 76.6156 29.0003C76.599 28.9397 76.6348 28.8771 76.6957 28.8605Z" fill="#E4C453"/>
<path fill-rule="evenodd" clip-rule="evenodd" d="M75.3464 28.1391C75.4071 28.1219 75.4703 28.157 75.4875 28.2174C75.6841 28.905 76.2409 31.4151 76.3699 32.0406C76.3826 32.1022 76.3428 32.1624 76.281 32.175C76.2192 32.1877 76.1589 32.148 76.1462 32.0865C76.0169 31.4601 75.4617 28.9579 75.2678 28.2798C75.2505 28.2193 75.2857 28.1564 75.3464 28.1391Z" fill="#E4C453"/>
<path fill-rule="evenodd" clip-rule="evenodd" d="M73.6501 27.4687C73.7097 27.4481 73.7748 27.4796 73.7954 27.539C74.0771 28.3489 74.7564 30.8139 75.0508 32.0726C75.0651 32.1338 75.0269 32.195 74.9655 32.2093C74.904 32.2235 74.8426 32.1855 74.8283 32.1243C74.5348 30.8691 73.8575 28.4128 73.5796 27.6135C73.5589 27.5541 73.5905 27.4893 73.6501 27.4687Z" fill="#E4C453"/>
<path fill-rule="evenodd" clip-rule="evenodd" d="M50.5195 27.3869C51.091 27.067 51.5067 26.5692 51.6326 25.8441C51.961 23.9548 50.7667 22.3884 48.8706 22.0613C46.9744 21.7342 44.0103 22.5831 43.6818 24.4724C43.5478 25.2438 43.7792 25.8777 44.2289 26.38C44.2497 26.3859 44.2702 26.3926 44.2906 26.4001L45.193 26.7337C45.352 26.7925 45.518 26.8312 45.6868 26.8489L49.0623 27.2027L50.269 27.3292C50.3582 27.3385 50.4419 27.3583 50.5195 27.3869ZM43.367 27.6611C40.7114 28.4663 38.12 30.5843 38.12 33.0704C38.12 33.3837 38.0996 33.6676 38.0802 33.9395C38.005 34.9897 37.9427 35.8592 39.1152 37.544C40.5575 38.5104 43.8136 37.6272 49.2032 33.8987C50.4456 34.9938 51.0165 35.7589 51.3552 36.2128C51.6981 36.6724 51.8032 36.8131 52.1261 36.6547C52.7082 36.3689 52.791 34.5825 52.791 33.0704C52.791 31.5834 51.904 30.2281 50.6332 29.2066C50.3533 29.3542 50.0138 29.3635 49.7207 29.2196L48.4774 28.6093C48.1947 28.4705 47.8898 28.3827 47.5765 28.3499L43.9224 27.9668C43.6875 27.9423 43.4951 27.8251 43.367 27.6611ZM30.5938 45.779C36.5003 48.3811 42.5304 48.638 44.5924 48.3219C49.8165 47.5211 53.624 48.1858 57.0922 48.7912H57.0927C57.6233 48.8839 58.1461 48.9751 58.6647 49.0596C62.152 49.627 66.3258 50.0996 73.3774 49.1509C73.3893 48.8834 73.3921 48.5771 73.383 48.2307C73.3165 45.7256 72.6632 42.2153 71.7069 38.558L80.9919 36.1475C82.0082 40.0341 82.8791 44.3777 82.9746 47.9777C83.0212 49.7291 82.9028 51.7528 82.2316 53.5586C81.5087 55.5035 79.8357 57.8311 76.674 58.3305C70.8425 59.2518 66.4601 59.3783 62.8696 59.1609C61.6801 61.1282 60.2379 63.4164 58.8352 65.3963C55.5666 70.0101 46.5106 69.0918 41.6375 68.3251C37.3238 67.6465 32.216 64.1428 29.8587 55.7477C28.8106 55.3899 27.7584 54.9831 26.7138 54.5228C19.0113 51.1296 11.2075 44.5756 8.82568 32.9551L18.2267 31.0421C19.8247 38.839 24.9019 43.2714 30.5938 45.779Z" fill="#4BE8E0"/>
<path fill-rule="evenodd" clip-rule="evenodd" d="M45.359 3.17773C43.088 3.17773 41.2469 5.01224 41.2469 7.27506V9.16157C41.2469 11.4245 43.088 13.2589 45.359 13.2589H47.2525C49.5235 13.2589 51.3646 11.4245 51.3646 9.16157V7.27506C51.3646 5.01224 49.5235 3.17773 47.2525 3.17773H45.359ZM14.8252 11.4875L22.3502 8.69032L25.1575 16.1881L17.6326 18.9852L14.8252 11.4875ZM80.119 16.7812C80.119 20.462 77.1244 23.4457 73.4303 23.4457C69.7362 23.4457 66.7415 20.462 66.7415 16.7812C66.7415 13.1004 69.7362 10.1166 73.4303 10.1166C77.1244 10.1166 80.119 13.1004 80.119 16.7812Z" fill="#C4FFFC"/>
<path fill-rule="evenodd" clip-rule="evenodd" d="M53.352 41.3287C53.3691 41.2978 53.4081 41.2866 53.4391 41.3036C60.9386 45.4315 67.087 45.8019 72.9848 45.3042C74.7397 45.1562 76.4692 44.9316 78.2066 44.7061C79.3934 44.552 80.5838 44.3975 81.7885 44.2665C84.7532 43.9442 87.794 43.7661 91.0463 44.0955C91.0815 44.0991 91.1072 44.1304 91.1036 44.1655C91.1 44.2006 91.0685 44.2262 91.0333 44.2226C87.7937 43.8945 84.7629 44.0717 81.8025 44.3935C80.604 44.5238 79.4153 44.6781 78.2288 44.8321C76.488 45.058 74.7517 45.2834 72.9956 45.4316C67.0803 45.9307 60.9048 45.5588 53.3771 41.4155C53.3461 41.3984 53.3349 41.3595 53.352 41.3287Z" fill="#BBADBE"/>
<path d="M38.0802 17.157C38.1156 17.1557 38.1433 17.1261 38.1419 17.0908C38.1406 17.0555 38.1108 17.0279 38.0754 17.0293L38.0802 17.157ZM27.5528 19.0462C29.2818 18.483 33.8102 17.3161 38.0802 17.157L38.0754 17.0293C33.7897 17.1889 29.2489 18.3591 27.5129 18.9247L27.5528 19.0462Z" fill="#BBADBE"/>
<path fill-rule="evenodd" clip-rule="evenodd" d="M47.3006 62.1876C53.2089 62.6495 57.9946 62.0362 64.3787 59.3217C64.6869 59.1906 65.0456 59.2539 65.2865 59.4863C58.5403 62.4331 53.221 63.3489 48.2567 63.0871C43.301 62.8256 38.6771 61.3884 37.2768 60.6525C37.1202 60.5701 37.0602 60.3769 37.1429 60.2209C37.2255 60.0649 37.4194 60.0051 37.5759 60.0874C38.8744 60.7697 42.4123 61.9298 47.3006 62.1876Z" fill="#FCE38A"/>
<path fill-rule="evenodd" clip-rule="evenodd" d="M39.368 54.6757C45.1 56.1754 49.9189 56.4183 56.6852 54.8764C57.012 54.8019 57.3538 54.9276 57.5493 55.1989C50.3853 56.9055 44.9873 56.8658 40.1484 55.7298C35.318 54.5959 31.0238 52.3635 29.7769 51.3916C29.6374 51.2829 29.6129 51.0822 29.7219 50.9431C29.831 50.8042 30.0325 50.7797 30.172 50.8884C31.3282 51.7897 34.6032 53.5571 39.368 54.6757Z" fill="#FCE38A"/>
<path d="M67.546 51.659C67.546 52.1018 67.1857 52.4607 66.7415 52.4607C66.2971 52.4607 66.0657 52.2389 66.0657 51.7961C66.0657 51.3534 66.1522 50.7878 66.5966 50.7878C67.0408 50.7878 67.546 51.2164 67.546 51.659Z" fill="#FDE8E8"/>
<path d="M17.4067 44.7022C17.5856 45.1074 18.2297 46.0025 17.8231 46.1807C17.4163 46.359 16.2859 45.8267 16.1071 45.4213C15.9282 45.0162 15.385 43.9354 15.7918 43.7572C16.1986 43.5789 17.2279 44.2969 17.4067 44.7022Z" fill="#FDE8E8"/>
<path fill-rule="evenodd" clip-rule="evenodd" d="M47.1889 7.56787H45.4225V9.32775H47.1889V7.56787ZM20.2694 12.7059L18.6144 13.3207L19.2314 14.9698L20.8864 14.3549L20.2694 12.7059ZM73.1068 15.5793L74.6366 16.4593L73.7534 17.9834L72.2238 17.1034L73.1068 15.5793ZM14.1647 27.4176C14.8864 27.4176 15.4714 26.8347 15.4714 26.1157C15.4714 25.3967 14.8864 24.8138 14.1647 24.8138C13.4431 24.8138 12.8581 25.3967 12.8581 26.1157C12.8581 26.8347 13.4431 27.4176 14.1647 27.4176ZM48.5758 44.0505C49.5624 43.1467 50.3782 41.9085 50.935 40.6157C50.9717 40.6356 51.0102 40.6514 51.0504 40.6631C51.6351 40.8323 52.3795 40.0413 52.7132 38.8964C53.0415 37.7696 52.8497 36.7199 52.2862 36.5258C52.2376 36.5826 52.1843 36.6262 52.1261 36.6547C51.8033 36.8131 51.6983 36.6724 51.3554 36.213C51.0166 35.759 50.4458 34.994 49.2033 33.8988C43.8136 37.6272 40.5576 38.5104 39.1154 37.544C38.9464 37.3012 38.803 37.0753 38.6816 36.8633C38.4292 37.3024 38.3937 38.0792 38.6318 38.8964C38.9655 40.0413 39.7099 40.8323 40.2944 40.6631C40.3548 40.6457 40.411 40.6187 40.4631 40.5831C41.1489 41.8825 42.101 43.1164 43.1877 44.0427C43.0422 46.6101 42.4675 48.6732 42.4528 48.7252C42.448 48.7255 42.4431 48.7256 42.4384 48.7259C42.433 48.726 42.4276 48.7261 42.4223 48.7261C42.4223 50.7887 43.9245 52.4608 45.7403 52.4608C47.556 52.4608 49.028 50.7887 49.028 48.7261C49.028 48.5744 49.0194 48.4418 49.0027 48.326C48.9621 47.8002 48.8554 46.621 48.5758 44.0505ZM50.0164 46.9991C50.0518 46.9991 50.0806 47.0277 50.0806 47.063C50.0806 48.3415 49.9204 49.8226 49.3277 51.035C48.733 52.2515 47.7027 53.197 45.972 53.3946C44.8786 53.5194 43.773 53.0654 42.8541 52.0534C41.9359 51.042 41.2026 49.4723 40.8457 47.3568C40.84 47.3221 40.8634 47.2891 40.8984 47.2832C40.9333 47.2775 40.9664 47.3009 40.9723 47.3358C41.3263 49.4345 42.0518 50.9792 42.9493 51.9677C43.8461 52.9556 44.9129 53.3869 45.9574 53.2676C47.6386 53.0757 48.6342 52.162 49.2124 50.9792C49.7925 49.7924 49.9523 48.3342 49.9523 47.063C49.9523 47.0277 49.981 46.9991 50.0164 46.9991ZM74.1517 31.8623C74.1517 32.5813 73.5667 33.1642 72.8451 33.1642C72.1235 33.1642 71.5385 32.5813 71.5385 31.8623C71.5385 31.1432 72.1235 30.5603 72.8451 30.5603C73.5667 30.5603 74.1517 31.1432 74.1517 31.8623ZM44.8493 8.71723C44.6661 8.72145 44.4799 8.7272 44.2907 8.73448L44.273 8.27959C44.4645 8.27218 44.6532 8.2663 44.8386 8.26209L44.8493 8.71723ZM48.0019 8.82508C47.8082 8.80706 47.6163 8.79109 47.4263 8.77729L47.4597 8.32316C47.6527 8.33735 47.8476 8.35358 48.0444 8.37185L48.0019 8.82508ZM43.2596 8.78802C43.0761 8.7999 42.8903 8.81294 42.7021 8.82738L42.6671 8.37338C42.8572 8.35894 43.0448 8.34565 43.2301 8.33377L43.2596 8.78802ZM41.6757 8.91618C41.4904 8.93407 41.303 8.95311 41.114 8.9733L41.0654 8.52058C41.256 8.50026 41.4447 8.4811 41.6317 8.46308L41.6757 8.91618ZM49.5653 9.00882C49.3765 8.98224 49.1892 8.95745 49.0032 8.93433L49.0599 8.4825C49.2483 8.50601 49.4381 8.53119 49.6292 8.55802L49.5653 9.00882ZM40.0961 9.09009C39.9081 9.11321 39.7185 9.13736 39.5274 9.16254L39.4675 8.71123C39.6599 8.68593 39.8507 8.66165 40.0401 8.63827L40.0961 9.09009ZM51.1333 9.26156C50.9489 9.22821 50.7655 9.19627 50.5833 9.16573L50.6591 8.71685C50.8432 8.74764 51.0285 8.77997 51.2149 8.8137L51.1333 9.26156ZM38.5191 9.30258C38.3299 9.33031 38.1395 9.3588 37.9479 9.38819L37.8783 8.93829C38.071 8.90864 38.2626 8.88002 38.4528 8.85216L38.5191 9.30258ZM52.7035 9.57347C52.5146 9.53284 52.3266 9.49335 52.1395 9.45528L52.231 9.0092C52.4198 9.04767 52.6095 9.0874 52.8002 9.12855L52.7035 9.57347ZM36.9437 9.54906C36.7567 9.58011 36.5688 9.61206 36.3798 9.6449L36.3016 9.1964C36.4915 9.16343 36.6804 9.13123 36.8684 9.10005L36.9437 9.54906ZM54.2412 9.92895C54.056 9.88333 53.8715 9.83899 53.6878 9.79568L53.7929 9.35267C53.978 9.39624 54.164 9.44096 54.3507 9.48696L54.2412 9.92895ZM35.3699 9.82596C35.1848 9.86033 34.9989 9.89534 34.8123 9.93112L34.726 9.48403C34.9136 9.44812 35.1003 9.41285 35.2864 9.37848L35.3699 9.82596ZM33.7988 10.1311C33.6152 10.1683 33.4309 10.2062 33.2461 10.2448L33.1524 9.79925C33.3381 9.76054 33.5231 9.72233 33.7076 9.68502L33.7988 10.1311ZM55.7815 10.329C55.6002 10.2796 55.4193 10.231 55.239 10.1834L55.3561 9.74329C55.5376 9.7912 55.7197 9.84014 55.9023 9.88997L55.7815 10.329ZM32.2425 10.4599C32.0564 10.5008 31.8698 10.5423 31.6827 10.5844L31.5818 10.1404C31.7698 10.098 31.9573 10.0563 32.1443 10.0153L32.2425 10.4599ZM57.3172 10.7681C57.133 10.7131 56.9492 10.6592 56.766 10.6062L56.8935 10.1689C57.0779 10.2223 57.2628 10.2766 57.4481 10.3318L57.3172 10.7681ZM30.6881 10.8138C30.5032 10.8574 30.318 10.9016 30.1324 10.9464L30.0247 10.5039C30.2112 10.459 30.3971 10.4146 30.5828 10.3708L30.6881 10.8138ZM58.8305 11.2365C58.65 11.1786 58.4697 11.1215 58.2899 11.0651L58.4267 10.6308C58.6076 10.6874 58.789 10.7449 58.9706 10.8032L58.8305 11.2365ZM29.1361 11.1922C28.9526 11.2384 28.769 11.2852 28.5851 11.3325L28.4707 10.8918C28.6554 10.8441 28.8399 10.7972 29.0242 10.7508L29.1361 11.1922ZM60.3454 11.7389C60.1661 11.6776 59.9871 11.617 59.8082 11.5571L59.9538 11.1256C60.1336 11.1858 60.3136 11.2467 60.4939 11.3084L60.3454 11.7389ZM27.5902 11.5936C27.4073 11.6426 27.2245 11.6922 27.0413 11.7422L26.9205 11.3032C27.1043 11.2529 27.2881 11.2031 27.4717 11.1541L27.5902 11.5936ZM26.054 12.0172C25.8711 12.0692 25.6881 12.1216 25.5053 12.1746L25.3777 11.7374C25.5614 11.6842 25.7452 11.6316 25.9289 11.5795L26.054 12.0172ZM61.8444 12.2672C61.6655 12.2024 61.4869 12.1382 61.3082 12.0747L61.4618 11.646C61.6412 11.7098 61.8208 11.7742 62.0006 11.8394L61.8444 12.2672ZM24.5221 12.4646C24.3402 12.5191 24.1585 12.5742 23.9769 12.6299L23.8426 12.1947C24.025 12.1389 24.2076 12.0835 24.3902 12.0286L24.5221 12.4646ZM63.3369 12.8226C63.1603 12.7551 62.9836 12.6883 62.807 12.6221L62.9679 12.196C63.1454 12.2626 63.3229 12.3296 63.5004 12.3975L63.3369 12.8226ZM22.9975 12.9352C22.8163 12.9927 22.6354 13.0506 22.4547 13.1091L22.3136 12.676C22.4951 12.6174 22.6769 12.5591 22.8589 12.5014L22.9975 12.9352ZM64.8205 13.4027C64.644 13.3321 64.4674 13.262 64.2908 13.1925L64.4589 12.7691C64.6362 12.839 64.8136 12.9094 64.9909 12.9804L64.8205 13.4027ZM21.4812 13.4297C21.3012 13.49 21.1215 13.5507 20.9421 13.612L20.7939 13.1814C20.9742 13.1198 21.1547 13.0587 21.3355 12.998L21.4812 13.4297ZM66.2934 14.006C66.1187 13.9327 65.9437 13.8602 65.7686 13.788L65.9432 13.3673C66.1192 13.4398 66.2949 13.5127 66.4704 13.5862L66.2934 14.006ZM67.7573 14.6319C67.5835 14.5562 67.4097 14.4808 67.2355 14.4058L67.4166 13.9878C67.5915 14.0631 67.7663 14.1388 67.9407 14.215L67.7573 14.6319ZM18.4741 14.4944C18.2957 14.5611 18.1179 14.6284 17.9405 14.6961L17.7771 14.271C17.9554 14.203 18.1342 14.1354 18.3136 14.0682L18.4741 14.4944ZM69.2123 15.2804C69.04 15.2021 68.8672 15.124 68.6944 15.0466L68.8817 14.6313C69.0555 14.7092 69.2289 14.7876 69.402 14.8662L69.2123 15.2804ZM16.9888 15.0661C16.8111 15.1364 16.6341 15.2073 16.4578 15.2785L16.2861 14.8567C16.4635 14.785 16.6414 14.7138 16.8201 14.6431L16.9888 15.0661ZM15.5099 15.6692C15.3357 15.7423 15.1622 15.8161 14.9896 15.89L14.8089 15.4719C14.9825 15.3975 15.1571 15.3233 15.3324 15.2497L15.5099 15.6692ZM70.6567 15.9502C70.4847 15.869 70.3124 15.7879 70.1395 15.7073L70.3331 15.295C70.5068 15.376 70.6799 15.4573 70.8526 15.5389L70.6567 15.9502ZM14.0466 16.303C13.8733 16.3804 13.7008 16.4584 13.5293 16.5368L13.3388 16.123C13.5114 16.0441 13.6851 15.9656 13.8597 15.8876L14.0466 16.303ZM72.0899 16.6412C71.9208 16.5581 71.751 16.4753 71.5807 16.3927L71.7806 15.9833C71.9517 16.0662 72.1221 16.1494 72.292 16.233L72.0899 16.6412ZM12.6029 16.9694C12.4302 17.0518 12.2586 17.1346 12.0882 17.218L11.8868 16.8093C12.0585 16.7253 12.2315 16.6418 12.4055 16.5587L12.6029 16.9694ZM11.1797 17.6723C11.0085 17.7599 10.8386 17.848 10.6702 17.9365L10.4569 17.5339C10.6269 17.4446 10.7982 17.3558 10.9709 17.2674L11.1797 17.6723ZM74.9202 18.0872C74.755 17.9995 74.589 17.912 74.4225 17.8247L74.635 17.4217C74.8024 17.5094 74.9691 17.5973 75.1351 17.6854L74.9202 18.0872ZM9.7706 18.4214C9.60542 18.5128 9.44179 18.6045 9.27969 18.6968L9.05309 18.3015C9.21673 18.2083 9.38203 18.1157 9.54887 18.0234L9.7706 18.4214ZM76.3273 18.8496C76.1622 18.7583 75.9961 18.6672 75.8293 18.5762L76.0484 18.1767C76.2162 18.2682 76.383 18.3597 76.5491 18.4515L76.3273 18.8496ZM8.39125 19.2169C8.22992 19.314 8.07039 19.4116 7.91278 19.5097L7.6708 19.1236C7.83033 19.0243 7.99165 18.9255 8.1549 18.8273L8.39125 19.2169ZM77.7113 19.6307C77.5454 19.535 77.3784 19.4396 77.2103 19.3441L77.4365 18.9485C77.6054 19.0445 77.7733 19.1404 77.9401 19.2365L77.7113 19.6307ZM7.04845 20.0649C6.89058 20.1697 6.73503 20.2749 6.58178 20.3804L6.32184 20.006C6.47739 19.8988 6.63513 19.7921 6.79517 19.6861L7.04845 20.0649ZM79.0784 20.4359C78.9188 20.3399 78.7581 20.2439 78.5963 20.148L78.8299 19.7567C78.9927 19.8532 79.1543 19.9497 79.3147 20.0463L79.0784 20.4359ZM80.4392 21.2752C80.2796 21.1744 80.1185 21.0735 79.9559 20.9725L80.1975 20.5861C80.3611 20.6877 80.5232 20.7893 80.6839 20.8909L80.4392 21.2752ZM5.75104 20.9743C5.59831 21.0878 5.44827 21.2016 5.30105 21.316L5.02007 20.9569C5.16998 20.8405 5.32272 20.7246 5.47802 20.6094L5.75104 20.9743ZM81.7688 22.1376C81.6099 22.0318 81.4493 21.9257 81.2868 21.8197L81.5372 21.4389C81.7009 21.5457 81.8627 21.6526 82.0227 21.7591L81.7688 22.1376ZM4.51199 21.9563C4.36682 22.0797 4.22485 22.2035 4.08648 22.328L3.7805 21.9898C3.92221 21.8625 4.06725 21.7359 4.21562 21.6099L4.51199 21.9563ZM83.0715 23.0314C82.9218 22.9255 82.7701 22.8194 82.6166 22.7131L82.8772 22.3392C83.0321 22.4463 83.185 22.5534 83.3359 22.6601L83.0715 23.0314ZM3.35205 23.0246C3.21804 23.1593 3.08813 23.2945 2.96246 23.4302L2.62673 23.1214C2.75612 22.9816 2.88975 22.8426 3.02748 22.7042L3.35205 23.0246ZM84.3615 23.9763C84.2136 23.864 84.0632 23.7512 83.9104 23.6381L84.1828 23.2727C84.3372 23.3869 84.4892 23.5007 84.6386 23.6143L84.3615 23.9763ZM2.30395 24.1947C2.18674 24.3419 2.07478 24.4893 1.96796 24.6373L1.59696 24.3717C1.70814 24.2176 1.82459 24.0642 1.94603 23.9118L2.30395 24.1947ZM85.6064 24.9637C85.4615 24.8433 85.3133 24.7224 85.1618 24.6009L85.4483 24.2463C85.6017 24.3694 85.752 24.4919 85.8988 24.6139L85.6064 24.9637ZM1.4205 25.4799C1.32817 25.6397 1.24212 25.8 1.16248 25.9606L0.752754 25.7591C0.836879 25.5894 0.927546 25.4206 1.02462 25.2527L1.4205 25.4799ZM86.7943 26.0061C86.655 25.8763 86.5113 25.7453 86.3632 25.6134L86.6675 25.2739C86.8182 25.4079 86.9646 25.5413 87.1067 25.6737L86.7943 26.0061ZM87.9023 27.1245C87.7751 26.9837 87.6415 26.8414 87.5015 26.6974L87.8297 26.3807C87.9732 26.5283 88.1107 26.6747 88.2419 26.8198L87.9023 27.1245ZM0.779043 26.882C0.720053 27.0573 0.668885 27.233 0.625924 27.4089L0.181958 27.3012C0.228125 27.1124 0.282882 26.9244 0.34572 26.7373L0.779043 26.882ZM13.2238 27.9129C13.2939 27.7375 13.3615 27.5602 13.4266 27.3813L13.8561 27.5363C13.7895 27.7197 13.7201 27.9014 13.6483 28.0812L13.2238 27.9129ZM88.8714 28.3472C88.7696 28.195 88.658 28.04 88.5368 27.8821L88.8999 27.6056C89.0264 27.7706 89.1438 27.9336 89.2515 28.0945L88.8714 28.3472ZM0.471651 28.3799C0.458442 28.5612 0.454083 28.7432 0.458572 28.9257L0.00190827 28.937C-0.00309309 28.7396 0.00178011 28.543 0.0160148 28.347L0.471651 28.3799ZM12.5682 29.3631C12.6534 29.1952 12.7365 29.0248 12.8172 28.8523L13.2314 29.0445C13.1486 29.2215 13.0634 29.3963 12.9758 29.5686L12.5682 29.3631ZM89.5349 29.6858C89.4898 29.5306 89.4298 29.3693 89.3546 29.2024L89.7715 29.0163C89.8542 29.2001 89.9221 29.3812 89.9738 29.5592L89.5349 29.6858ZM0.568602 29.8987C0.604509 30.0771 0.649392 30.2561 0.703253 30.4357L0.26557 30.5662C0.207605 30.3733 0.159386 30.1807 0.120658 29.9883L0.568602 29.8987ZM11.7811 30.7448C11.8821 30.5864 11.9809 30.4248 12.0778 30.2602L12.472 30.4903C12.3726 30.6595 12.2708 30.8257 12.1669 30.9888L11.7811 30.7448ZM89.4702 31.0764C89.5452 30.9273 89.5944 30.7699 89.6188 30.6036L90.071 30.6696C90.0395 30.8828 89.9759 31.087 89.8786 31.2805L89.4702 31.0764ZM1.05617 31.3518C1.13375 31.5166 1.21916 31.682 1.31278 31.8478L0.914465 32.0709C0.815591 31.8956 0.724925 31.7203 0.642467 31.545L1.05617 31.3518ZM10.8568 32.0353C10.9741 31.89 11.0895 31.7404 11.2032 31.5869L11.571 31.857C11.4536 32.0156 11.3342 32.1702 11.2128 32.3206L10.8568 32.0353ZM88.4364 32.0234C88.5971 31.9399 88.7397 31.8519 88.8652 31.7598L89.1362 32.1264C88.9898 32.2338 88.8268 32.3341 88.6475 32.4272L88.4364 32.0234ZM74.3905 32.1827C74.5823 32.2096 74.772 32.2356 74.9597 32.2608L74.8986 32.712C74.7101 32.6867 74.5195 32.6605 74.3271 32.6335L74.3905 32.1827ZM86.9837 32.5279C87.1763 32.4834 87.3573 32.4353 87.5272 32.3838L87.6603 32.8193C87.4796 32.8741 87.2884 32.9249 87.0867 32.9714L86.9837 32.5279ZM75.9537 32.3893C76.1342 32.4118 76.3127 32.4334 76.4892 32.4542L76.4354 32.9063C76.258 32.8854 76.0786 32.8636 75.8972 32.8412L75.9537 32.3893ZM77.5345 32.571C77.7307 32.5916 77.9243 32.6113 78.1153 32.6299L78.0709 33.083C77.8787 33.0643 77.6839 33.0446 77.4865 33.0238L77.5345 32.571ZM1.85087 32.684C1.90717 32.7618 1.96526 32.8398 2.02528 32.9177C2.08427 32.9944 2.14352 33.0689 2.20302 33.1411L1.85011 33.4301C1.78714 33.3538 1.72469 33.2753 1.66262 33.1946C1.59991 33.1131 1.53925 33.0317 1.48026 32.9503L1.85087 32.684ZM85.4469 32.7754C85.6412 32.7549 85.8281 32.7319 86.0078 32.7064L86.0723 33.157C85.8869 33.1833 85.6944 33.2071 85.495 33.2282L85.4469 32.7754ZM79.1211 32.7204C79.3026 32.7355 79.4815 32.7494 79.658 32.7623L79.6243 33.2164C79.4465 33.2033 79.2663 33.1892 79.0835 33.1741L79.1211 32.7204ZM9.78522 33.1977C9.92038 33.0707 10.054 32.938 10.186 32.8L10.5167 33.1141C10.3794 33.2577 10.24 33.396 10.0989 33.5287L9.78522 33.1977ZM80.7047 32.8295C80.9012 32.8401 81.094 32.8495 81.2833 32.8574L81.2641 33.3123C81.0729 33.3042 80.8781 33.2949 80.6799 33.284L80.7047 32.8295ZM83.8827 32.8787C84.0693 32.8727 84.2509 32.8649 84.4276 32.8553L84.4524 33.31C84.2722 33.3197 84.0873 33.3276 83.8975 33.3337L83.8827 32.8787ZM82.2715 32.8875C82.4607 32.891 82.6459 32.893 82.8269 32.8936L82.8257 33.3488C82.642 33.3483 82.4545 33.3463 82.2632 33.3428L82.2715 32.8875ZM8.55232 34.1718C8.70672 34.0723 8.86009 33.9651 9.01219 33.8507L9.28739 34.2141C9.12696 34.3349 8.96461 34.4482 8.80059 34.554L8.55232 34.1718ZM2.89218 33.868C3.03376 33.9963 3.17649 34.1136 3.32012 34.22L3.04735 34.5852C2.89129 34.4694 2.73701 34.3427 2.58479 34.2047L2.89218 33.868ZM7.15527 34.8511C7.32775 34.7946 7.49998 34.7281 7.67182 34.6515L7.85803 35.0673C7.67272 35.1497 7.48587 35.222 7.29787 35.2836L7.15527 34.8511ZM4.16946 34.7242C4.33899 34.801 4.50929 34.8648 4.68024 34.916L4.54879 35.352C4.35784 35.2947 4.16817 35.2238 3.98017 35.1386L4.16946 34.7242ZM5.64486 35.0756C5.82606 35.0823 6.00791 35.0763 6.19014 35.0581L6.23553 35.5111C6.0333 35.5313 5.83055 35.5379 5.62793 35.5305L5.64486 35.0756Z" fill="#FEAF88"/>
<path fill-rule="evenodd" clip-rule="evenodd" d="M51.7565 36.6707C51.6444 36.6 51.5312 36.4482 51.3555 36.2129C51.0167 35.7589 50.4458 34.9937 49.2034 33.8987C44.1743 37.3776 41.0031 38.3793 39.4294 37.7127C39.9781 40.8079 42.6975 44.5729 45.6608 45.4664C49.0668 45.1619 51.7393 40.3272 51.7393 37.0979C51.7393 36.9522 51.7458 36.8098 51.7565 36.6707ZM46.8792 40.0812L45.8744 37.3653L45.0189 40.0812C45.0189 40.0812 45.3839 40.5034 45.9639 40.4877C46.5439 40.4718 46.8792 40.0812 46.8792 40.0812ZM45.9505 43.0503C45.5439 43.0727 45.1324 42.9487 44.8364 42.6306L45.0235 42.4578C45.2581 42.7097 45.59 42.8155 45.9364 42.7964C46.2839 42.7772 46.6373 42.6323 46.8999 42.3944L47.0717 42.5826C46.7652 42.8601 46.356 43.0279 45.9505 43.0503Z" fill="white" fill-opacity="0.29"/>
<path d="M43.3302 26.711C43.5393 26.3981 43.9369 26.2693 44.2908 26.4001L45.1932 26.7336C45.3522 26.7925 45.5181 26.8312 45.6869 26.8489L49.0624 27.2027L50.2692 27.3292C51.1288 27.4193 51.4791 28.4783 50.8419 29.06C50.5369 29.3385 50.0918 29.4019 49.7208 29.2198L48.4775 28.6092C48.1949 28.4705 47.8899 28.3827 47.5765 28.3499L43.9226 27.9669C43.3142 27.9031 42.9912 27.2184 43.3302 26.711Z" fill="#1A7297"/>
<path d="M42.49 35.6084H43.7332L40.9239 39.1877L40.1807 38.3342L42.49 35.6084Z" fill="white" fill-opacity="0.392"/>
<path d="M44.2246 36.7527L44.5521 37.0916L42.1724 40.0153L41.7178 39.6899L44.2246 36.7527Z" fill="white" fill-opacity="0.392"/>
<path d="M49.0538 35.4399L50.1376 35.7731L47.3974 39.1629L46.7446 38.1658L49.0538 35.4399Z" fill="white" fill-opacity="0.392"/>
<path d="M50.7885 36.5845L51.116 36.9233L48.7361 39.847L48.2815 39.5216L50.7885 36.5845Z" fill="white" fill-opacity="0.392"/>
<path fill-rule="evenodd" clip-rule="evenodd" d="M42.4221 35.6697C41.3281 35.6697 40.4413 36.5533 40.4413 37.6434C40.4413 38.7334 41.3281 39.6171 42.4221 39.6171C43.5161 39.6171 44.403 38.7334 44.403 37.6434C44.403 36.5533 43.5161 35.6697 42.4221 35.6697ZM39.9326 37.6434C39.9326 36.2734 41.0472 35.1628 42.4221 35.1628C43.797 35.1628 44.9116 36.2734 44.9116 37.6434C44.9116 39.0134 43.797 40.1239 42.4221 40.1239C41.0472 40.1239 39.9326 39.0134 39.9326 37.6434Z" fill="#EFF4FF"/>
<path fill-rule="evenodd" clip-rule="evenodd" d="M48.9356 35.6697C47.8416 35.6697 46.9547 36.5533 46.9547 37.6434C46.9547 38.7334 47.8416 39.6171 48.9356 39.6171C50.0296 39.6171 50.9164 38.7334 50.9164 37.6434C50.9164 36.5533 50.0296 35.6697 48.9356 35.6697ZM46.446 37.6434C46.446 36.2734 47.5606 35.1628 48.9356 35.1628C50.3105 35.1628 51.4251 36.2734 51.4251 37.6434C51.4251 39.0134 50.3105 40.1239 48.9356 40.1239C47.5606 40.1239 46.446 39.0134 46.446 37.6434Z" fill="#EFF4FF"/>
<path fill-rule="evenodd" clip-rule="evenodd" d="M50.935 40.6157C51.452 39.4157 51.7456 38.1686 51.7456 37.098C51.7456 36.9182 51.7554 36.7434 51.7711 36.5737C51.9379 36.495 52.1039 36.4724 52.2588 36.5172C52.8435 36.6863 53.0469 37.7515 52.7132 38.8964C52.3795 40.0413 51.6352 40.8323 51.0506 40.6632C51.0102 40.6514 50.9717 40.6356 50.935 40.6157ZM39.3371 36.5006C39.336 36.5443 39.3353 36.5889 39.3353 36.6341C39.3353 37.8448 39.7588 39.2484 40.4632 40.5831C40.4111 40.6187 40.3548 40.6457 40.2946 40.6632C39.7099 40.8323 38.9655 40.0413 38.6319 38.8964C38.2983 37.7515 38.5016 36.6863 39.0863 36.5172C39.1673 36.4937 39.2515 36.4887 39.3371 36.5006Z" fill="black" fill-opacity="0.13"/>
<path d="M39.2099 36.3226C39.1979 36.3916 39.2442 36.4573 39.3133 36.4693C39.3825 36.4813 39.4484 36.4352 39.4605 36.3662L39.2099 36.3226ZM42.2849 34.3192C42.3545 34.3096 42.4031 34.2456 42.3935 34.1763C42.3839 34.1069 42.3196 34.0585 42.2501 34.0681L42.2849 34.3192ZM39.4605 36.3662C39.5549 35.8267 40.2412 34.6002 42.2849 34.3192L42.2501 34.0681C40.1034 34.3633 39.3244 35.6684 39.2099 36.3226L39.4605 36.3662Z" fill="#BBADBE"/>
<path d="M51.7794 35.1388C51.7928 35.2075 51.7477 35.274 51.6787 35.2873C51.6098 35.3006 51.5431 35.2558 51.5297 35.187L51.7794 35.1388ZM48.6674 33.1929C48.5976 33.1848 48.5477 33.1216 48.5561 33.0522C48.5644 32.9827 48.6276 32.933 48.6974 32.9413L48.6674 33.1929ZM51.5297 35.187C51.4252 34.6495 50.7159 33.4358 48.6674 33.1929L48.6974 32.9413C50.8493 33.1965 51.6526 34.4868 51.7794 35.1388L51.5297 35.187Z" fill="#BBADBE"/>
<path fill-rule="evenodd" clip-rule="evenodd" d="M46.8792 40.0814L45.8744 37.3655L45.0188 40.0814C45.0188 40.0814 45.3839 40.5036 45.9639 40.4878C46.544 40.4721 46.8792 40.0814 46.8792 40.0814ZM45.9504 43.0504C45.5438 43.0729 45.1324 42.9488 44.8364 42.6308L45.0235 42.4579C45.2581 42.7099 45.59 42.8157 45.9363 42.7965C46.2837 42.7774 46.6372 42.6325 46.8999 42.3945L47.0715 42.5828C46.765 42.8603 46.3558 43.0281 45.9504 43.0504Z" fill="black" fill-opacity="0.13"/>
</g>
<path fill-rule="evenodd" clip-rule="evenodd" d="M136.061 27.0999C135.856 26.464 135.259 26.0121 134.576 25.9452L124.552 25.1084L120.642 16.0209C120.369 15.4017 119.754 15 119.071 15C118.388 15 117.773 15.4017 117.5 16.0209L113.59 25.1084L103.567 25.9452C102.884 25.9954 102.303 26.4472 102.081 27.0999C101.876 27.7359 102.064 28.4388 102.593 28.8739L110.192 35.3339L107.921 44.9402C107.767 45.5929 108.023 46.2791 108.587 46.6807C109.15 47.0824 109.885 47.0991 110.465 46.7644L119.071 41.66L127.694 46.7477C127.967 46.915 128.275 46.982 128.582 46.982C128.941 46.982 129.282 46.8816 129.589 46.664C130.153 46.2623 130.409 45.5929 130.255 44.9235L127.984 35.3172L135.583 28.8572C136.078 28.4388 136.283 27.7359 136.061 27.0999Z" fill="#4BE8E0"/>
<defs>
<clipPath id="clip0">
<rect width="94" height="60" fill="white"/>
</clipPath>
</defs>
</svg>
