<svg width="61" height="40" viewBox="0 0 61 40" fill="none" xmlns="http://www.w3.org/2000/svg">
<g clip-path="url(#clip0)">
<path fill-rule="evenodd" clip-rule="evenodd" d="M20.8971 36.3256C21.2372 36.9125 22.1662 37.0841 22.2872 37.1034C22.4019 37.1226 23.4235 37.2648 24.1579 36.4986C24.69 35.9425 24.7311 35.257 24.726 34.9981C24.4079 34.8957 24.06 34.8225 23.6928 34.7931C23.7198 34.8303 23.7443 34.8687 23.7649 34.9097C23.98 35.3249 23.9415 35.9706 23.5047 36.3333C23.2587 36.537 22.9082 36.6293 22.5668 36.5793C22.2923 36.5395 22.0656 36.4114 21.9445 36.2294C21.7783 35.9822 21.7603 35.558 21.9832 35.3826C22.0553 35.3262 22.1545 35.2967 22.2679 35.2967C22.5036 35.2967 22.8025 35.4261 23.055 35.7195C23.0847 35.7529 23.0808 35.804 23.0474 35.8336C23.0125 35.863 22.9623 35.8591 22.9327 35.8246C22.6351 35.4812 22.246 35.3826 22.0837 35.5094C21.9458 35.6182 21.9432 35.9361 22.0797 36.1398C22.1764 36.2846 22.3619 36.3858 22.5899 36.4192C22.8863 36.4627 23.1904 36.3833 23.4004 36.209C23.7701 35.9027 23.8023 35.3351 23.6206 34.984C23.5807 34.9072 23.5305 34.8393 23.4725 34.7803C23.3372 34.7765 23.2007 34.779 23.0615 34.788C22.7098 34.811 22.3993 34.9059 22.1223 35.0545C21.5993 35.3351 21.2025 35.804 20.8971 36.3256ZM20.0515 38.4409C19.953 38.7685 19.8833 39.0002 19.8226 39.059L15.3005 57.3436L19.5341 58.5853L22.1146 48.9882L23.1246 45.2286L23.6052 43.4437L23.8925 42.3739L24.1657 41.3577L24.3318 40.7414C24.3318 40.7414 24.547 40.7543 24.9244 40.7735C25.1254 40.785 25.3728 40.7978 25.6575 40.812C27.536 40.908 31.0686 41.0733 33.9531 41.1182C33.0307 40.9414 32.0928 40.6569 31.1987 40.2161C31.0608 40.1482 30.9178 40.0674 30.7684 39.9739C29.2817 39.0488 27.2822 36.9743 26.3275 35.9415C26.0376 35.6276 25.53 35.2855 24.8897 35.0536C24.8872 35.3688 24.8124 36.0479 24.2751 36.6091C23.7211 37.1896 23.0165 37.2869 22.6003 37.2869C22.4275 37.2869 22.3045 37.2701 22.2634 37.2644L22.2602 37.2639C22.1364 37.2433 21.2167 37.073 20.807 36.4848C20.4329 37.1734 20.2065 37.9256 20.0515 38.4409Z" fill="#3FDAD2"/>
<path d="M24.9987 25.1858C25.0734 24.754 25.3001 24.3862 25.6145 24.1287C25.9958 23.8161 26.506 23.6635 27.0304 23.7533L32.9336 24.7553L32.6618 27.0784L28.7542 26.8028C28.1255 26.7579 27.5342 26.9553 27.0743 27.3154L26.4377 27.2078C25.7485 27.0911 25.2229 26.5902 25.0412 25.9636C24.9704 25.7189 24.9523 25.4536 24.9987 25.1858Z" fill="#0E3449"/>
<path fill-rule="evenodd" clip-rule="evenodd" d="M18.741 15.4187C18.2206 14.3538 17.8791 13.6453 17.8791 13.6453L15.0885 17.8595L15.0899 17.8621L20.5408 25.937C20.6438 25.7756 20.7405 25.6616 20.7405 25.6616L22.2312 25.6886L23.1832 26.2202L25.5267 27.5272L25.899 27.5772C25.1827 26.7942 24.393 25.8678 23.7694 24.9722C23.6496 24.8018 23.5363 24.6326 23.4306 24.4649V24.4636C23.3017 24.3379 23.2193 24.1765 23.1678 24.0291C23.0904 23.8997 23.0105 23.7588 22.9269 23.6102C22.856 23.6025 22.7645 23.5896 22.6602 23.5692C22.3935 23.5192 22.0468 23.4244 21.779 23.2514C21.2701 22.922 21.4865 22.1648 21.4865 22.1648C21.636 22.1174 21.8498 22.2493 22.0739 22.4019C22.1049 22.4227 22.1359 22.4439 22.1671 22.4652C22.2357 22.5122 22.3046 22.5595 22.3729 22.6017C22.1976 22.2737 22.0121 21.9239 21.8228 21.56C20.7624 19.5278 19.5398 17.0536 18.741 15.4187ZM19.7382 21.8996L19.4819 22.5057L19.3569 22.4531L19.6403 21.7817L20.412 19.9583L20.537 20.0109L19.7382 21.8996ZM19.1005 21.118L18.9548 21.464L18.83 21.4114L19.0039 21.0001L19.8851 18.9179L20.0101 18.9692L19.1005 21.118ZM17.7633 20.5126C17.4705 20.149 17.2234 19.8421 17.0778 19.4035V19.4022C17.0417 19.292 17.012 19.1755 16.9889 19.046L18.5942 15.4853C18.7713 16.2677 19.0595 16.8173 19.3251 17.3242C19.4032 17.4732 19.4794 17.6184 19.5501 17.7648L18.3403 20.3812L18.0878 20.9271C17.9756 20.7763 17.8666 20.641 17.7633 20.5126ZM25.224 30.0881C25.0552 30.1227 24.8606 30.1368 24.6519 30.1343C24.5823 30.133 24.5129 30.1304 24.4406 30.1266C24.228 30.1151 24.0065 30.0894 23.7836 30.0561L24.1263 30.2996L24.5837 30.625L24.7164 30.7186L24.8915 30.8429L27.4953 32.6931C27.7015 32.3048 28.0751 32.0166 28.5195 31.9217L28.441 31.645L28.4061 31.6424C27.7916 31.5988 27.2453 31.3324 26.8447 30.9274C26.6476 30.7301 26.4853 30.4982 26.3667 30.2445L26.1464 30.2137L25.224 30.0881Z" fill="#FFF5D9"/>
<path d="M26.1506 29.0503C26.175 28.716 26.2665 28.4008 26.4108 28.1201C26.4906 27.9625 26.5885 27.8164 26.6994 27.6819C26.8115 27.5461 26.9377 27.4244 27.0769 27.3154C27.5368 26.9554 28.1281 26.7581 28.7568 26.8028L32.6644 27.0784L36.8167 27.3718L37.086 27.391L37.8436 27.4448L38.167 26.2788C38.1682 26.2788 38.1682 26.2788 38.1695 26.2788C38.1991 26.2788 38.2249 26.2584 38.2326 26.2288C38.2364 26.2109 38.3627 25.6561 38.5598 24.8642L39.4527 21.6532C39.7838 20.6089 40.1329 19.6992 40.4318 19.334C41.2666 18.3127 42.5021 18.56 43.1631 18.7971C43.1967 18.8099 43.234 18.792 43.2456 18.7587C43.2468 18.7536 43.2481 18.7484 43.2481 18.7432C44.2892 19.2417 44.8548 20.4244 44.5365 21.5724L42.2548 29.7858C42.0023 30.6956 41.4007 31.4362 40.6225 31.8885C40.0917 32.196 39.4784 32.3703 38.8394 32.3703C38.757 32.3703 38.6732 32.3677 38.5895 32.3613L36.0321 32.1807L32.1001 31.9027L31.894 31.8885L30.4935 31.7899L28.445 31.645L28.4103 31.6425C27.7958 31.599 27.2495 31.3324 26.8488 30.9275C26.6517 30.7301 26.4893 30.4983 26.3708 30.2446C26.2021 29.8833 26.1196 29.4758 26.1506 29.0503Z" fill="#1A7297"/>
<path fill-rule="evenodd" clip-rule="evenodd" d="M21.4107 31.5565C22.1386 32.2537 23.1075 32.1178 23.2183 32.0998C23.3586 32.0755 24.5981 31.8474 24.7231 30.9953C24.7372 30.9017 24.736 30.8095 24.7205 30.7186L24.5877 30.625L24.1304 30.2996C24.0969 30.2913 24.0638 30.2838 24.0312 30.2764H24.0311C24.0086 30.2714 23.9863 30.2663 23.9642 30.2611C23.9358 30.2547 23.9088 30.2483 23.8817 30.2419C23.5983 30.1766 23.3072 30.1817 23.0341 30.2509C22.7107 30.3329 22.4091 30.5046 22.1721 30.7544L21.9312 31.0081C21.9789 31.0811 22.0355 31.1479 22.1051 31.2054C22.3151 31.3797 22.6179 31.4578 22.9155 31.4156C23.1435 31.3823 23.329 31.2798 23.4257 31.1362C23.5623 30.9325 23.5597 30.6148 23.4218 30.5059C23.2594 30.379 22.8704 30.4764 22.5728 30.8211C22.5432 30.8544 22.4929 30.8582 22.4581 30.8287C22.4247 30.8006 22.4207 30.7493 22.4491 30.7148C22.6385 30.4956 22.8537 30.3675 23.0495 30.3162C23.2401 30.2675 23.4115 30.2919 23.5223 30.379C23.7452 30.5546 23.7271 30.9774 23.561 31.2247C23.4398 31.4079 23.2118 31.5361 22.9387 31.5746C22.5973 31.6244 22.2456 31.5322 22.0008 31.3297C21.9287 31.2696 21.8668 31.2016 21.8166 31.1286L21.4107 31.5565ZM21.8912 34.5458C21.8242 34.5688 21.7586 34.597 21.6928 34.629C21.1672 34.8891 20.7059 35.4375 20.7884 35.9988C20.8064 36.1192 20.8463 36.2281 20.903 36.3256C21.2084 35.804 21.6052 35.335 22.1283 35.0545C22.4052 34.9058 22.7157 34.811 23.0675 34.788C23.2066 34.7789 23.3431 34.7764 23.4785 34.7802C23.1898 34.4868 22.7067 34.4137 22.2931 34.4599C22.1463 34.4752 22.0084 34.5048 21.8912 34.5458ZM21.2999 31.6731C21.8422 32.192 22.5058 32.283 22.9038 32.283C23.083 32.283 23.2079 32.2651 23.2452 32.2586C23.3973 32.233 24.7423 31.9844 24.8841 31.0183C24.8931 30.9593 24.8969 30.9017 24.8957 30.8427L27.4994 32.6931C27.3886 32.9032 27.3254 33.1415 27.3254 33.3952C27.3254 33.8116 27.4955 34.1883 27.77 34.4612C28.0444 34.7342 28.4232 34.9034 28.8418 34.9034H35.6082H36.246L42.1852 36.405L42.2201 36.2948C42.3115 37.5262 42.153 39.3828 41.1069 40.4258C40.9561 40.5758 40.7886 40.709 40.5993 40.8205C40.3016 40.9987 39.9526 41.1242 39.5467 41.1793C38.3356 41.3458 36.1931 41.5484 33.9592 41.1178C33.0366 40.941 32.0988 40.6565 31.2047 40.2157C31.0668 40.1478 30.9238 40.067 30.7744 39.9736C29.2876 39.0484 27.2881 36.9739 26.3334 35.9412C26.0436 35.6272 25.536 35.2852 24.8957 35.0532C24.8957 35.0084 24.8944 34.9713 24.8931 34.943C24.8904 34.8981 24.8506 34.8649 24.8081 34.8662C24.763 34.8687 24.7282 34.9072 24.7307 34.9507C24.732 34.9649 24.732 34.9802 24.732 34.9981C24.4138 34.8956 24.0659 34.8226 23.6987 34.7931C23.539 34.5689 23.2879 34.4228 23.0031 34.3484C22.6295 34.2473 22.1979 34.269 21.8384 34.3933C21.2355 34.601 20.6647 35.1558 20.6184 35.7823C20.6132 35.8617 20.6158 35.9412 20.6274 36.0219C20.6532 36.1988 20.7201 36.3525 20.8129 36.4845C20.4388 37.173 20.2125 37.9253 20.0575 38.4405C19.9589 38.7681 19.8892 38.9999 19.8286 39.0587L11.9478 46.8467L9.60046 43.9943L21.2999 31.6731ZM28.445 31.6446L28.5236 31.9213C28.6254 31.8996 28.7323 31.8881 28.8418 31.8881H30.9006C30.8732 31.8813 30.8459 31.8747 30.8185 31.868C30.7098 31.8414 30.6016 31.815 30.4935 31.7894L28.445 31.6446Z" fill="#71F4EE"/>
<path fill-rule="evenodd" clip-rule="evenodd" d="M34.8443 6.00582C34.7979 6.2416 34.7812 6.48891 34.7954 6.74001L35.0143 10.5225C35.0877 11.7987 35.8608 12.7444 36.9816 13.0455C37.4415 13.1685 37.9259 13.1556 38.3898 13.0468C38.391 13.0468 38.3937 13.0468 38.395 13.0455C38.3963 13.0455 38.3975 13.0451 38.3988 13.0449C38.4001 13.0445 38.4014 13.0442 38.4027 13.0442C38.9915 12.9045 40.0775 12.6137 41.0064 12.1947C41.0079 12.1947 41.009 12.1942 41.0098 12.1939C41.0106 12.1936 41.011 12.1934 41.0115 12.1934C41.0115 12.1934 40.415 12.8687 39.7928 13.4722C39.2478 14.0013 38.6835 14.4754 38.4813 14.3896L38.5469 15.3903C38.802 15.4223 39.1087 15.4082 39.4681 15.3096C39.709 15.2443 39.9744 15.1405 40.263 14.9879C40.3095 14.9636 40.3558 14.9381 40.3996 14.9136C40.7281 14.7291 40.9935 14.5331 41.1958 14.3294L41.1674 13.7425L41.0876 12.1588C41.9044 11.7795 42.582 11.3003 42.6594 10.7365L42.6736 10.5545C43.7519 9.93999 43.1963 5.3368 42.2205 5.85896C42.1841 5.87843 42.0115 6.10282 41.775 6.41031C41.0799 7.31404 39.8319 8.93653 39.8598 8.19177C39.8869 7.44476 39.1241 5.99561 38.7377 5.31128C38.535 5.37551 38.3847 5.43416 38.2391 5.49091C38.03 5.57235 37.8306 5.65012 37.4995 5.73548C36.8953 5.89303 35.8312 6.16978 34.8443 6.00582ZM24.9962 25.1857C24.9498 25.4534 24.9678 25.7186 25.0387 25.9634L24.3083 25.6148L23.7683 24.9716C23.6486 24.8012 23.5352 24.632 23.4296 24.4642V24.463C23.3007 24.3374 23.2183 24.1759 23.1667 24.0286C23.0895 23.8992 23.0096 23.7582 22.9258 23.6096C22.855 23.6019 22.7634 23.589 22.6591 23.5685C22.3924 23.5186 22.0459 23.4238 21.7779 23.2508C21.269 22.9215 21.4854 22.1642 21.4854 22.1642C21.6349 22.1169 21.8488 22.2488 22.0729 22.4013C22.1038 22.422 22.1348 22.4432 22.166 22.4646C22.2347 22.5116 22.3035 22.5589 22.3718 22.6011C22.1967 22.2731 22.011 21.9233 21.8217 21.5594C22.7777 21.5774 23.4089 22.2334 23.4089 22.2334C23.4965 22.245 23.7825 22.5255 24.0905 22.8535C24.5414 23.3328 25.04 23.9158 25.04 23.9158L25.6121 24.1285C25.2976 24.386 25.0709 24.7539 24.9962 25.1857ZM20.7393 25.6615C20.7393 25.6615 20.6428 25.7755 20.5396 25.9369C20.3966 26.1612 20.242 26.4776 20.3206 26.707L20.5358 26.757C20.5358 26.757 20.4662 26.866 20.4044 27.0043C20.3219 27.1901 20.2549 27.4284 20.3928 27.5194C20.6337 27.6796 20.7432 28.0333 20.7432 28.0333C20.7432 28.0333 20.51 28.36 21.1388 28.7994C21.1388 28.7994 21.3501 29.6105 21.7907 29.6605C21.8203 29.6643 21.8563 29.6695 21.9001 29.6784C21.9481 29.6864 22.0051 29.6984 22.0686 29.7117L22.0934 29.7169C22.1786 29.7353 22.2754 29.7571 22.3811 29.781H22.3812C22.7242 29.8584 23.1614 29.9571 23.6085 30.0295C23.6665 30.0398 23.7244 30.0487 23.7824 30.0564C24.0053 30.0898 24.2269 30.1153 24.4395 30.1269C24.5117 30.1308 24.5811 30.1334 24.6507 30.1346C24.8594 30.1372 25.054 30.123 25.2228 30.0885L26.1452 30.214L26.3656 30.2447C26.1968 29.8835 26.1143 29.476 26.1452 29.0506C26.1697 28.7162 26.2612 28.401 26.4054 28.1203C26.4854 27.9627 26.5833 27.8167 26.6941 27.6821L25.8978 27.577L25.5255 27.5271L23.1821 26.2201L22.23 25.6883L20.7393 25.6615ZM7.80711 46.6945L8.44994 46L10.0733 47.3429L9.58112 47.7772C9.51296 47.7546 9.42009 47.7518 9.32626 47.7489C9.30286 47.7482 9.27946 47.7475 9.25642 47.7464C9.21512 47.7446 9.15484 47.7759 9.07856 47.8153C8.78358 47.9679 8.2507 48.2437 7.6641 47.2031C7.63067 47.144 7.67914 47.0281 7.73035 46.9055C7.76019 46.8341 7.79099 46.7605 7.80711 46.6945ZM16.734 59.9924L18.8185 60.305L18.6807 60.8713C18.6219 60.8834 18.5574 60.9043 18.4931 60.9251H18.493C18.4757 60.9308 18.4582 60.9364 18.441 60.9418C18.4014 60.9544 18.3553 61.0045 18.2973 61.0677H18.2972V61.0678C18.0727 61.3121 17.6682 61.752 16.7572 60.9752C16.7057 60.9316 16.7114 60.8058 16.7175 60.6727C16.7237 60.5395 16.7302 60.3991 16.6799 60.3268L16.734 59.9924Z" fill="#FFD0BA"/>
<path d="M42.6529 34.9031H43.708H45.875V40.4666V40.4859V40.5128V41.2751V42.1657V53.362V61.8317H42.4493V42.6244V42.4899V41.4047V41.1086V40.8946V40.8408V40.5922V35.554V34.9031H42.6529Z" fill="#351FAE"/>
<path fill-rule="evenodd" clip-rule="evenodd" d="M18.0888 20.9262C17.9766 20.7755 17.8676 20.6401 17.7642 20.5118C17.4715 20.1481 17.2244 19.8412 17.0788 19.4026V19.4015C17.0426 19.2912 17.013 19.1746 16.9898 19.0452L18.5951 15.4844C18.7723 16.2668 19.0605 16.8165 19.3261 17.3233C19.4042 17.4723 19.4802 17.6175 19.5511 17.7639L18.3413 20.3803L18.0888 20.9262ZM18.9559 21.4632L18.8309 21.4106L19.0049 20.9994L19.8861 18.9172L20.0111 18.9685L19.1016 21.1173L18.9559 21.4632ZM19.3579 22.4527L19.4828 22.5052L19.7393 21.8991L20.538 20.0104L20.413 19.9579L19.6414 21.7812L19.3579 22.4527ZM20.5418 25.9366C20.3988 26.1608 20.2442 26.4773 20.3229 26.7067L20.538 26.7567C20.538 26.7567 20.4684 26.8656 20.4066 27.004C17.1573 23.0851 15.1511 18.014 15.0913 17.8629L15.0908 17.8616L20.5418 25.9366ZM24.0281 30.2763H24.0282C24.0608 30.2836 24.0939 30.2911 24.1273 30.2994L23.7847 30.0559C23.7267 30.0483 23.6687 30.0393 23.6108 30.0291C23.7267 30.1098 23.8439 30.1866 23.9612 30.261C23.9726 30.2637 23.984 30.2663 23.9955 30.2689C24.0063 30.2714 24.0173 30.2738 24.0281 30.2763ZM33.361 43.7187L33.5903 43.7508L33.8041 43.7815L34.1172 42.9115L34.2963 42.413L34.3864 42.1632L34.5025 41.8429H34.4973L42.4489 40.8946V41.1087V41.4047V42.4899V42.6245L35.3372 43.5765C35.1608 43.6278 34.9998 43.6816 34.8541 43.7354C34.6467 43.8123 34.4471 44.0032 34.2576 44.2966C33.9974 44.6989 33.7578 45.2935 33.5426 46.0507C33.0376 47.842 32.6794 50.5418 32.5596 53.7529C32.432 57.1933 32.3909 60.4363 32.436 63.3897L31.3511 63.4065C31.3061 60.4337 31.3486 57.1727 31.4774 53.7131C31.6127 50.0459 32.0648 45.7048 33.361 43.7187ZM47.543 60.5333L46.0175 41.7233V40.4689C45.9712 40.4843 45.9247 40.4983 45.8745 40.5125V41.2749V42.1655V53.3617L46.4634 60.6205L47.543 60.5333Z" fill="#FDD25D"/>
<path fill-rule="evenodd" clip-rule="evenodd" d="M47.3628 31.8882L50.0078 15.0835C48.4593 16.0548 47.3359 24.9075 46.6827 31.8882H47.3628ZM46.8887 34.9035H46.4172C46.1492 38.1466 46.0126 40.4697 46.0126 40.4697L46.8887 34.9035Z" fill="#151516"/>
<path fill-rule="evenodd" clip-rule="evenodd" d="M28.5196 31.9219C28.0752 32.0168 27.7015 32.305 27.4954 32.6933C27.3846 32.9034 27.3214 33.1418 27.3214 33.3955C27.3214 33.8119 27.4915 34.1886 27.7659 34.4616C28.0403 34.7345 28.4191 34.9037 28.8378 34.9037H35.6042H36.2419H41.4223H42.4479H42.6514H43.7066H45.8736H46.4211H46.8926H59.4836C60.321 34.9037 61 34.2284 61 33.3955C61 32.979 60.8299 32.6023 60.5556 32.3307C60.2811 32.0577 59.9024 31.8887 59.4836 31.8887H53.5611C52.9259 31.9438 52.1246 32.0002 52.1246 32.0002H50.2462C50.2462 32.0002 49.4166 31.9425 48.7093 31.8887H47.3668H46.6865H44.3533H43.5971H40.6185C40.0876 32.1962 39.4744 32.3705 38.8354 32.3705C38.7529 32.3705 38.6691 32.3678 38.5854 32.3614L36.0281 32.1807L32.096 31.9028L31.8899 31.8887H30.8966H28.8378C28.7283 31.8887 28.6214 31.9002 28.5196 31.9219ZM42.4479 61.8323H38.1576C37.7338 61.8323 37.3898 62.1744 37.3898 62.5973V62.7727C37.3898 63.1943 37.7338 63.5365 38.1576 63.5365H44.0119H50.1637C50.5876 63.5365 50.9315 63.1943 50.9315 62.7727V62.5973C50.9315 62.1744 50.5876 61.8323 50.1637 61.8323H45.8736H42.4479Z" fill="#6D53F9"/>
<path fill-rule="evenodd" clip-rule="evenodd" d="M46.6827 31.888C47.3359 24.9072 48.4593 16.0545 50.0078 15.0832C50.0078 15.0832 45.4316 14.7206 42.3087 14.7834C42.4234 14.9653 42.5638 15.146 42.7377 15.296C42.9922 15.5141 43.2466 15.7141 43.4944 15.9089C44.2929 16.5368 45.0218 17.11 45.4574 18.0584C46.2278 19.737 46.51 21.6258 46.2214 23.5067L43.5931 31.888H44.3495H46.6827ZM46.0126 40.4693C45.9663 40.4847 45.9199 40.4987 45.8696 40.5128V40.4859V40.4666V34.9031H46.4172C46.1492 38.1462 46.0126 40.4693 46.0126 40.4693ZM40.5913 40.8201C40.2937 40.9982 39.9446 41.1238 39.5387 41.1789C38.3277 41.3454 36.1852 41.5479 33.9512 41.1174C31.0665 41.0725 27.5339 40.9072 25.6556 40.8111L25.9943 40.8508L34.3042 41.8195L34.4923 41.8425L42.4439 40.8944V40.8406V40.592V35.5538L42.212 36.2944C42.3035 37.5257 42.145 39.3824 41.0989 40.4254C40.9482 40.5754 40.7807 40.7086 40.5913 40.8201ZM0.957962 46.0611C3.28349 46.4493 7.80548 46.5466 7.80548 46.5466C7.82351 46.5851 7.81968 46.6364 7.80416 46.694C7.78805 46.76 7.75737 46.8337 7.72753 46.9051C7.67632 47.0277 7.62785 47.1436 7.66116 47.2027C8.24788 48.2433 8.78077 47.9675 9.07574 47.8149C9.15202 47.7753 9.2123 47.7441 9.2536 47.746C9.27664 47.7471 9.30004 47.7478 9.32331 47.7485C9.41726 47.7513 9.51014 47.7542 9.5783 47.7767C9.62855 47.7909 9.6646 47.8164 9.67869 47.86C9.87076 48.4405 9.28715 49.6782 9.04745 50.1267C8.98048 50.2523 8.83102 50.3087 8.69709 50.2587L0.052269 47.2027C0.052269 47.2027 0.330536 45.9573 0.957962 46.0611ZM10.4931 62.1801C12.8121 61.7494 16.6629 60.3093 16.6629 60.3093L16.6644 60.3107C16.665 60.3115 16.6656 60.312 16.6662 60.3128L16.6674 60.3141C16.6685 60.3153 16.6695 60.3164 16.6705 60.3176C16.6717 60.3193 16.673 60.3208 16.6745 60.3226L16.6746 60.3227L16.6771 60.3259C16.7274 60.3984 16.7209 60.5387 16.7148 60.6718C16.7087 60.8049 16.7029 60.9307 16.7545 60.9743C17.6655 61.7511 18.0698 61.3112 18.2945 61.0669C18.3525 61.0037 18.3986 60.9536 18.4382 60.9409C18.4555 60.9356 18.4728 60.9299 18.4902 60.9243C18.5546 60.9034 18.6191 60.8826 18.6779 60.8705C18.7629 60.8513 18.8351 60.8526 18.8763 60.9038C19.2577 61.3831 19.1366 62.7451 19.067 63.2474C19.0464 63.3883 18.9266 63.4921 18.7836 63.4921L10.0371 63.5613C10.0371 63.5613 9.86826 62.2966 10.4931 62.1801Z" fill="white"/>
<path fill-rule="evenodd" clip-rule="evenodd" d="M32.9969 1.59005C33.5663 1.15439 34.5055 1.31328 34.9088 1.77327C35.1407 2.03773 35.1814 2.38435 35.2066 2.59877C35.2206 2.71785 35.2299 2.7962 35.2644 2.79704C35.3106 2.7987 35.3256 2.65658 35.3485 2.43956C35.3999 1.9551 35.4907 1.09713 36.0567 0.631607C36.5707 0.210039 37.4597 0.121637 37.8527 0.497068C38.3045 0.927017 38.2263 1.52556 38.1813 1.87053C38.1611 2.02521 38.1476 2.1289 38.1914 2.14358C38.2348 2.15782 38.2715 2.0482 38.331 1.87134C38.4903 1.39617 38.8128 0.435687 39.8624 0.0883106C40.7707 -0.212799 41.9843 0.307429 42.0719 0.875063C42.1093 1.11724 41.9444 1.38375 41.6893 1.64002C41.9663 1.56826 42.2561 1.54392 42.5409 1.59902C43.0884 1.70408 43.605 2.10002 43.8138 2.63438C44.0134 3.143 43.9284 3.70932 43.6875 4.15406C43.7702 4.5538 43.7707 5.16856 43.7711 5.71279C43.7712 5.95701 43.7714 6.18698 43.779 6.37706C43.8267 7.61227 43.4298 10.3941 42.6736 10.5543C42.6388 10.562 42.604 10.5645 42.5692 10.5607C42.4429 10.5477 42.5264 10.1742 42.6394 9.66834V9.66822C42.6717 9.52373 42.7064 9.36844 42.7393 9.20757C42.6092 9.27679 42.4636 9.31905 42.3103 9.32808C42.291 9.32926 42.2716 9.33057 42.2523 9.33057C42.0127 9.33057 41.7769 9.24604 41.5811 9.09098C41.5232 9.0448 41.5128 8.96027 41.5604 8.90138C41.5837 8.87312 41.6159 8.8565 41.6493 8.8527C41.6842 8.84878 41.7202 8.85781 41.7498 8.88084C41.9122 9.00894 42.1003 9.07044 42.2948 9.05893C42.4932 9.04741 42.6722 8.96027 42.8101 8.82314C42.8108 8.82314 42.8111 8.8229 42.8113 8.82255C42.8114 8.82219 42.8114 8.82195 42.8114 8.82195C43.0073 8.62843 43.1232 8.33625 43.1052 8.01724C43.0923 7.8084 43.0254 7.61749 42.9184 7.46244C42.8733 7.39583 42.8205 7.33683 42.7625 7.28554C42.7625 7.28506 42.7623 7.28471 42.7619 7.28447L42.7617 7.28435H42.7615C42.7613 7.28435 42.7612 7.28435 42.7612 7.28435C42.6001 7.14212 42.3966 7.06257 42.1802 7.07421C41.9405 7.08822 41.7163 7.21644 41.5643 7.42658C41.5412 7.45852 41.5076 7.47645 41.4716 7.48036C41.442 7.48547 41.4097 7.47906 41.3827 7.46244C41.1418 8.03516 41.0979 8.79239 41.0979 8.79239C41.0979 8.79239 39.8224 9.18964 39.8598 8.19152C39.8869 7.44451 39.1242 5.99524 38.7377 5.31103C38.5351 5.37526 38.3848 5.43379 38.2392 5.49066H38.2391C38.0302 5.5721 37.8307 5.64987 37.4997 5.73511C36.8954 5.89278 35.8312 6.16953 34.8443 6.00557C34.4024 5.93255 33.976 5.77227 33.6126 5.4738C32.8693 4.86261 32.7134 3.93869 32.6515 3.5659L32.6495 3.55355C32.5502 2.95874 32.398 2.04689 32.9969 1.59005ZM22.9335 31.5748C22.5921 31.6247 22.2405 31.5324 21.9958 31.33C21.9235 31.2698 21.8617 31.2019 21.8114 31.1289C21.5525 30.7598 21.5563 30.2525 21.7354 29.9065C21.7792 29.8207 21.8346 29.745 21.9004 29.6784C21.9482 29.6863 22.0053 29.6982 22.0687 29.7115L22.0936 29.7168C22.0073 29.7873 21.9351 29.8757 21.8797 29.9808C21.7316 30.2653 21.7251 30.6945 21.9262 31.0084C21.9738 31.0814 22.0305 31.1481 22.1001 31.2057C22.3101 31.38 22.6128 31.4581 22.9104 31.4158C23.1384 31.3826 23.324 31.28 23.4206 31.1365C23.5572 30.9327 23.5545 30.615 23.4168 30.5062C23.2544 30.3792 22.8653 30.4766 22.5677 30.8214C22.5381 30.8546 22.4878 30.8584 22.4531 30.829C22.4195 30.8008 22.4157 30.7496 22.444 30.715C22.6334 30.4958 22.8486 30.3677 23.0445 30.3164C23.2351 30.2678 23.4064 30.2921 23.5172 30.3792C23.7402 30.5548 23.7221 30.9776 23.5558 31.2249C23.4348 31.4081 23.2067 31.5363 22.9335 31.5748ZM21.8334 34.3933C22.1928 34.269 22.6245 34.2473 22.998 34.3484C23.2828 34.4228 23.534 34.5689 23.6937 34.7931C23.7208 34.8302 23.7453 34.8687 23.7659 34.9097C23.9811 35.3248 23.9424 35.9707 23.5057 36.3333C23.2596 36.537 22.9092 36.6293 22.5678 36.5793C22.2934 36.5396 22.0665 36.4114 21.9455 36.2295C21.7793 35.9822 21.7613 35.558 21.9842 35.3825C22.0563 35.3261 22.1555 35.2967 22.2689 35.2967C22.5046 35.2967 22.8036 35.4261 23.056 35.7195C23.0856 35.7528 23.0818 35.8041 23.0483 35.8336C23.0135 35.863 22.9633 35.8592 22.9337 35.8246C22.6361 35.4812 22.2469 35.3825 22.0847 35.5093C21.9468 35.6183 21.9442 35.936 22.0807 36.1398C22.1774 36.2846 22.3629 36.3858 22.5909 36.4191C22.8872 36.4627 23.1913 36.3833 23.4013 36.209C23.7711 35.9028 23.8033 35.3352 23.6216 34.984C23.5816 34.9072 23.5315 34.8393 23.4735 34.7803C23.1848 34.4869 22.7017 34.4139 22.2882 34.4599C22.1413 34.4754 22.0035 34.5048 21.8863 34.5458C21.8192 34.5689 21.7535 34.5971 21.6878 34.6291C21.1622 34.8892 20.7009 35.4376 20.7834 35.9988C20.8014 36.1193 20.8414 36.2282 20.8981 36.3256C21.2382 36.9124 22.1671 37.0841 22.2882 37.1033C22.4028 37.1226 23.4245 37.2648 24.1588 36.4986C24.691 35.9424 24.7322 35.2569 24.727 34.9981C24.727 34.9802 24.727 34.9649 24.7257 34.9507C24.7232 34.9072 24.7579 34.8687 24.8031 34.8662C24.8456 34.8649 24.8854 34.8981 24.8881 34.943C24.8894 34.9712 24.8907 35.0084 24.8907 35.0532C24.8881 35.3684 24.8133 36.0475 24.2761 36.6087C23.7221 37.1892 23.0174 37.2866 22.6012 37.2866C22.4284 37.2866 22.3055 37.2697 22.2645 37.264L22.2611 37.2635C22.1374 37.2431 21.2176 37.0726 20.8079 36.4844C20.7151 36.3525 20.6481 36.1988 20.6224 36.0219C20.6108 35.9411 20.6081 35.8617 20.6133 35.7823C20.6597 35.1558 21.2304 34.601 21.8334 34.3933ZM22.8988 32.2831C23.078 32.2831 23.2029 32.2651 23.2402 32.2587C23.3923 32.2331 24.7373 31.9845 24.879 31.0183C24.8881 30.9595 24.8919 30.9018 24.8907 30.8429L24.7154 30.7186C24.7308 30.8095 24.7322 30.9018 24.7179 30.9953C24.593 31.8474 23.3536 32.0755 23.2132 32.0998C23.1025 32.1177 22.1336 32.2536 21.4057 31.5565C21.3837 31.536 21.3632 31.5156 21.3425 31.4937C20.7743 30.8993 20.7654 30.1598 20.7756 29.9472C20.7783 29.9023 20.7434 29.8639 20.6984 29.8626C20.652 29.8601 20.6159 29.8946 20.6133 29.9395C20.6017 30.1676 20.6121 30.9646 21.2253 31.6052C21.2485 31.6295 21.2716 31.6527 21.2949 31.6731C21.8372 32.1921 22.5007 32.2831 22.8988 32.2831ZM37.1467 14.9174C35.6278 16.5024 33.6965 18.9151 33.4028 20.7256L32.9312 24.7555L32.6594 27.0785L36.8117 27.372L37.081 27.3912L37.8384 27.445L38.1618 26.279C38.158 26.279 38.1529 26.2777 38.1502 26.2764C38.1155 26.2688 38.0935 26.2354 38.1013 26.2009C38.1554 25.9625 39.4309 20.3476 40.3263 19.2535C41.2113 18.1707 42.5087 18.4282 43.2019 18.6768C43.2302 18.687 43.2469 18.7153 43.2431 18.7434C44.284 19.2419 44.8496 20.4245 44.5315 21.5726L42.2498 29.786C41.9973 30.6958 41.3957 31.4364 40.6175 31.8887H43.5961L46.2243 23.5075C46.5129 21.6264 46.2308 19.7377 45.4603 18.0592C45.0247 17.1106 44.2957 16.5375 43.4974 15.9097C43.2495 15.7149 42.9952 15.5148 42.7406 15.2966C42.5667 15.1468 42.4263 14.9661 42.3116 14.7841C42.1382 14.5048 42.0283 14.2236 41.961 14.0511C41.9208 13.9481 41.8957 13.884 41.8813 13.882L41.1675 13.7424L41.196 14.3292C41.299 14.2268 41.384 14.1217 41.4536 14.0153C41.5309 13.8974 41.6893 13.8641 41.8079 13.9397C41.9277 14.0166 41.9611 14.1742 41.8839 14.2934C41.7654 14.4753 41.6134 14.6495 41.4253 14.8148C41.1779 15.0378 40.8686 15.2466 40.5027 15.4388C40.021 15.6925 39.5906 15.8271 39.2132 15.8821C39.0701 15.9027 38.9362 15.9117 38.8086 15.9117C37.7277 15.9117 37.1752 15.2515 37.1525 15.2244L37.1518 15.2236C37.0784 15.1313 37.0797 15.0057 37.1467 14.9174ZM35.0055 10.3687C35.187 10.3776 35.419 10.2776 35.5582 10.1982C35.5646 10.1944 35.5711 10.1918 35.5774 10.1918C35.6058 10.1841 35.6354 10.1969 35.6496 10.2225C35.6689 10.2546 35.6574 10.2956 35.6251 10.3148C35.5555 10.3546 35.2786 10.5057 35.0248 10.5057H35.0131C34.9178 10.5045 34.8276 10.4802 34.7517 10.4199C34.5726 10.2764 34.5893 9.99839 34.5983 9.84844C34.6267 9.37687 34.7233 8.85793 34.8856 8.29933C34.9243 8.16351 34.9668 8.02377 35.0144 7.88284C35.026 7.84829 35.0647 7.82906 35.0994 7.84057C35.1356 7.85209 35.1549 7.89056 35.1432 7.92641C35.1304 7.96357 35.1187 8.00073 35.1072 8.03789C35.0299 8.27617 34.9642 8.50816 34.9114 8.73243C34.8147 9.13218 34.7555 9.50889 34.7335 9.85735C34.7233 10.0303 34.722 10.2225 34.8367 10.3148C34.8818 10.3506 34.9397 10.3674 35.0055 10.3687ZM37.3553 7.56632L36.1134 7.41518C35.9729 7.39856 35.8454 7.49722 35.8287 7.63815C35.8106 7.77777 35.911 7.90469 36.0515 7.92131L37.2935 8.07244C37.3038 8.07375 37.314 8.07506 37.3244 8.07506C37.4532 8.07506 37.5627 7.9802 37.5795 7.85079C37.5962 7.71117 37.497 7.58306 37.3553 7.56632ZM36.1352 8.691C36.13 8.61027 36.1918 8.54105 36.273 8.53594C36.3541 8.53084 36.4237 8.59365 36.4289 8.67438C36.434 8.75511 36.371 8.82421 36.2898 8.82813C36.2086 8.83323 36.139 8.77173 36.1352 8.691ZM36.5204 11.0254C36.4986 11.074 36.3801 11.3187 36.1005 11.4033C35.8852 11.47 35.6972 11.4046 35.6263 11.3725C35.5877 11.3559 35.5438 11.3725 35.5271 11.411C35.5091 11.4481 35.5258 11.493 35.5645 11.5096C35.6238 11.5366 35.75 11.5827 35.9097 11.5827C35.9833 11.5827 36.0618 11.5738 36.1456 11.5481C36.4793 11.4456 36.6236 11.1689 36.6596 11.0856C36.6763 11.0471 36.6583 11.0035 36.6196 10.9869C36.581 10.9703 36.5371 10.9882 36.5204 11.0254ZM38.395 13.045C38.3954 13.045 38.396 13.045 38.3965 13.0449C38.3973 13.0447 38.3981 13.0445 38.3988 13.0444L38.4001 13.044L38.4011 13.0439C38.4017 13.0438 38.4021 13.0437 38.4027 13.0437C38.9915 12.9041 40.0775 12.6132 41.0064 12.1942C41.009 12.1942 41.0103 12.1929 41.0115 12.1929C41.0115 12.1929 40.4151 12.8682 39.7928 13.4717C39.2479 14.0008 38.6835 14.475 38.4813 14.3892L38.5469 15.3899C37.8986 15.311 37.5802 14.9379 37.5542 14.9074L37.5536 14.9068C37.4648 14.7978 37.305 14.7786 37.1942 14.8671C37.6697 14.3724 38.1025 13.9625 38.4272 13.6805L38.3898 13.0463C38.3911 13.0463 38.3936 13.0463 38.395 13.045ZM38.5547 24.8639C38.7827 23.9541 39.1048 22.7317 39.4475 21.6529L38.5547 24.8639ZM42.4467 34.9031V35.5541L42.2148 36.2947L42.1801 36.4049L36.2407 34.9031H41.4212H42.4467ZM49.331 28.5394C51.0811 28.8879 51.1009 28.8919 53.0859 28.5121C51.8402 28.3493 50.544 28.3493 49.1939 28.5121C49.2408 28.5214 49.2864 28.5305 49.331 28.5394Z" fill="#145774"/>
<path fill-rule="evenodd" clip-rule="evenodd" d="M37.1503 14.9168C37.1644 14.9001 37.1799 14.8848 37.1953 14.8693L37.1979 14.8668C37.3087 14.7784 37.4684 14.7976 37.5574 14.9065L37.5579 14.9072C37.584 14.9377 37.9023 15.3107 38.5507 15.3896C38.8058 15.4216 39.1125 15.4075 39.4719 15.3089C39.7128 15.2436 39.9782 15.1398 40.2668 14.9872C40.3131 14.9629 40.3596 14.9372 40.4034 14.9129C40.7319 14.7284 40.9973 14.5324 41.1996 14.3287C41.3026 14.2262 41.3876 14.1211 41.4572 14.0148C41.5346 13.8969 41.693 13.8635 41.8115 13.9391C41.9314 14.0161 41.9648 14.1736 41.8875 14.2928C41.769 14.4747 41.6169 14.649 41.4289 14.8142C41.1815 15.0372 40.8723 15.246 40.5064 15.4383C40.0246 15.692 39.5943 15.8265 39.2168 15.8816C39.0738 15.9021 38.9397 15.9111 38.8122 15.9111C37.7312 15.9111 37.1787 15.2509 37.156 15.2238L37.1554 15.223C37.082 15.1308 37.0832 15.0052 37.1503 14.9168ZM40.3298 19.253C41.2149 18.1702 42.5122 18.4279 43.2054 18.6765C43.2337 18.6867 43.2506 18.7148 43.2466 18.7431C43.2466 18.7482 43.2453 18.7533 43.2441 18.7584C43.2324 18.7918 43.195 18.8097 43.1616 18.7969C42.5007 18.5598 41.2651 18.3126 40.4304 19.3337C40.1314 19.6989 39.7823 20.6087 39.4511 21.653C39.1085 22.7319 38.7863 23.9543 38.5583 24.864C38.3612 25.6558 38.235 26.2106 38.2311 26.2287C38.2234 26.2581 38.1976 26.2786 38.168 26.2786H38.1654C38.1615 26.2786 38.1564 26.2773 38.1538 26.276C38.119 26.2683 38.0971 26.2351 38.1048 26.2004C38.159 25.9621 39.4344 20.3473 40.3298 19.253ZM48.9464 28.8938L50.1303 31.5911C48.851 31.6026 47.7687 31.6205 47.7378 31.6398C47.6631 31.6884 47.6657 31.7769 47.7378 31.8037C47.7675 31.8141 48.2081 31.8499 48.7118 31.8884C49.4192 31.9422 50.2488 31.9999 50.2488 31.9999H52.1272C52.1272 31.9999 52.9285 31.9435 53.5637 31.8884C53.9632 31.855 54.2955 31.8216 54.3251 31.8037C54.4038 31.7563 54.3896 31.6347 54.3251 31.6077C54.3097 31.5872 53.346 31.5796 52.1594 31.5808L52.515 30.7735C52.5511 30.8056 52.5911 30.8337 52.6336 30.8581C53.0381 31.0914 53.5715 30.9286 53.8227 30.4942C54.0753 30.0612 53.9503 29.5204 53.5444 29.2872C53.4401 29.227 53.328 29.1937 53.2133 29.1847L53.3409 28.8938C53.4194 28.7145 53.2868 28.512 53.0896 28.512C51.1046 28.8919 51.0847 28.8878 49.3347 28.5393C49.2902 28.5305 49.2444 28.5213 49.1975 28.512C48.9991 28.512 48.8665 28.7145 48.9464 28.8938Z" fill="#22A6B3"/>
</g>
<defs>
<clipPath id="clip0">
<rect width="61" height="40" fill="white" transform="matrix(-1 0 0 1 61 0)"/>
</clipPath>
</defs>
</svg>
